<svg id="Layer_1" data-name="Layer 1" xmlns="http://www.w3.org/2000/svg" viewBox="0 0 94.7 17.6"><path d="M28.2 9.3V7.9h-7.8v3.4h3.1a2.605 2.605 0 01-2.9 2.1 3.225 3.225 0 01-2.6-1.2 5.51 5.51 0 01-.9-3.4 5.968 5.968 0 01.9-3.6 2.767 2.767 0 012.4-1.1 3.022 3.022 0 011.6.5A3.142 3.142 0 0123.1 6l4.7-1.6a7.628 7.628 0 00-2.7-3.2A8.059 8.059 0 0020.5 0a9.509 9.509 0 00-3.5.6 6.765 6.765 0 00-2.6 1.8 5.496 5.496 0 00-.7.9l5.1 14a9.15 9.15 0 001.7.1 7.546 7.546 0 003.5-.7 5.46 5.46 0 002.4-1.8 7.222 7.222 0 001.4-2.6 9.476 9.476 0 00.4-3zm-15.7 8h5.3l-1.9-5.2-4.1-2.8-4 2.9 1.5-4.8-4.1-2.9 5-.1L11.5.5H6.2L0 17.3h5.4l.8-2.6h5.5l.8 2.6z" fill="#236a9f"/><path d="M39.7 13.7v-.6h-3.6v1.6h1.4a1.204 1.204 0 01-1.3 1 1.656 1.656 0 01-1.2-.5 2.537 2.537 0 01-.4-1.6A2.364 2.364 0 0135 12a1.408 1.408 0 011.8-.3 1.47 1.47 0 01.5.6l2.1-.8a3.738 3.738 0 00-1.3-1.5 3.458 3.458 0 00-2.1-.5 4.146 4.146 0 00-1.6.3 3.596 3.596 0 00-1.2.8 5.67 5.67 0 00-.8 1.3 4.146 4.146 0 00-.3 1.6 6.804 6.804 0 00.2 1.5 5.388 5.388 0 00.7 1.3 2.73 2.73 0 001.2.9 4.671 4.671 0 001.7.3 3.808 3.808 0 001.6-.3 3.134 3.134 0 001.1-.8 3.458 3.458 0 00.7-1.2 2.146 2.146 0 00.4-1.5zm4.9 3.6h2.6l-1.7-3a2.55 2.55 0 001.2-.8 2.116 2.116 0 00.4-1.4 2.268 2.268 0 00-.8-1.9 3.92 3.92 0 00-2.3-.6h-3.8v7.7h2.3v-2.7h.6l1.5 2.7zM43.5 13h-1.1v-1.7h1.1a1.997 1.997 0 01.9.2.864.864 0 01.3.6.605.605 0 01-.3.6c-.1.3-.4.3-.9.3zm4.1 4.3h6.2v-1.7H50v-1.4h2.8v-1.7H50v-1.1h3.7V9.6h-6v7.7zm12 0h2.5l-2.9-7.7h-2.5l-2.8 7.7h2.5l.4-1.2h2.5l.3 1.2zM58 11.9l.8 2.5h-1.5l.7-2.5zm4.7 5.4H65v-5.9h2.1V9.6h-6.5v1.8h2.1v5.9zm9.5 0h2.4V9.6h-2.3V14l-2.5-4.4h-2.4v7.7h2.3v-4.4l2.5 4.4zm3 0h6.2v-1.7h-3.8v-1.4h2.8v-1.7h-2.8v-1.1h3.7V9.6h-6l-.1 7.7zm11.6-5.2l1.3-1.5a4.234 4.234 0 00-.7-.5c-.2-.1-.5-.3-.7-.4a2.353 2.353 0 00-.8-.2c-.3 0-.6-.1-1-.1a5.902 5.902 0 00-1.4.2 3.128 3.128 0 00-1 .5 1.555 1.555 0 00-.6.8 2.958 2.958 0 00-.2 1 2.111 2.111 0 00.6 1.6 3.769 3.769 0 001.8.8 5.072 5.072 0 00.9.2c.2.1.4.1.5.2s.2.1.2.2.1.1.1.2c0 .3-.3.5-1 .5a2.732 2.732 0 01-1.9-.8l-1.4 1.5c.2.2.5.4.7.6a2.01 2.01 0 00.8.4 2.353 2.353 0 00.8.2c.3 0 .6.1.9.1a6.053 6.053 0 001.5-.2 2.345 2.345 0 001-.5 1.555 1.555 0 00.6-.8 2.958 2.958 0 00.2-1 2.92 2.92 0 00-.2-.9 1.794 1.794 0 00-.5-.7 7.018 7.018 0 00-.9-.6 5.732 5.732 0 00-1.4-.4 4.65 4.65 0 01-.9-.3.52.52 0 01-.2-.4.758.758 0 01.2-.4c.1-.1.4-.1.7-.1a4.253 4.253 0 011.1.2 1.799 1.799 0 01.9.6zm6.6 0l1.3-1.5a4.234 4.234 0 00-.7-.5c-.2-.1-.5-.3-.7-.4a2.353 2.353 0 00-.8-.2c-.3 0-.6-.1-1-.1a5.902 5.902 0 00-1.4.2 3.128 3.128 0 00-1 .5 1.555 1.555 0 00-.6.8 2.958 2.958 0 00-.2 1 2.111 2.111 0 00.6 1.6 3.769 3.769 0 001.8.8 5.072 5.072 0 00.9.2c.2.1.4.1.5.2s.2.1.2.2.1.1.1.2c0 .3-.3.5-1 .5a2.732 2.732 0 01-1.9-.8l-1.4 1.5c.2.2.5.4.7.6a2.01 2.01 0 00.8.4 2.353 2.353 0 00.8.2c.3 0 .6.1.9.1a6.053 6.053 0 001.5-.2 2.345 2.345 0 001-.5 1.555 1.555 0 00.6-.8 2.958 2.958 0 00.2-1 2.92 2.92 0 00-.2-.9 1.794 1.794 0 00-.5-.7 7.018 7.018 0 00-.9-.6 5.732 5.732 0 00-1.4-.4 4.65 4.65 0 01-.9-.3.52.52 0 01-.2-.4.758.758 0 01.2-.4c.1-.1.4-.1.7-.1a4.253 4.253 0 011.1.2 1.799 1.799 0 01.9.6zM37.8 8.4h2.5L37.5.7H35l-3 7.7h2.5l.4-1.2h2.5l.4 1.2zm-1.7-5.5l.8 2.5h-1.5l.7-2.5zm11 5.5h2.3V.7h-2.9l-1.6 4.6L43.4.7h-2.9v7.7h2.3V3.9l1.5 4.5h1.4l1.5-4.5-.1 4.5zm2.9 0h6.2V6.6h-3.8V5.2H55V3.5h-2.8V2.4h3.7V.7h-6l.1 7.7zm10.9 0h2.6l-1.7-3a2.55 2.55 0 001.2-.8 2.116 2.116 0 00.4-1.4 2.268 2.268 0 00-.8-1.9 3.593 3.593 0 00-2.2-.6h-3.8v7.7h2.3V5.7h.6l1.4 2.7zm-1-4.3h-1.1V2.4h1.1a1.997 1.997 0 01.9.2 1.421 1.421 0 01.2.6.605.605 0 01-.3.6c-.1.2-.4.3-.8.3zm4 4.3h2.3V.7h-2.3v7.7zM73.6 7l-1.9-1.2a1.097 1.097 0 01-1.2.8c-1 0-1.5-.7-1.5-2a2.364 2.364 0 01.4-1.6 1.408 1.408 0 011.8-.3 1.47 1.47 0 01.5.6l2.2-.7a3.738 3.738 0 00-1.3-1.5 3.458 3.458 0 00-2.1-.5 4.146 4.146 0 00-1.6.3 2.4 2.4 0 00-1.2.7 5.67 5.67 0 00-.8 1.3 4.146 4.146 0 00-.3 1.6 6.804 6.804 0 00.2 1.5 5.388 5.388 0 00.7 1.3 2.73 2.73 0 001.2.9 4.671 4.671 0 001.7.3 3.807 3.807 0 001.9-.4A2.85 2.85 0 0073.6 7zm5.6 1.4h2.5L78.9.7h-2.5l-2.8 7.7h2.5l.4-1.2H79l.2 1.2zm-1.7-5.5l.8 2.5h-1.5l.7-2.5zm9.2 5.5h2.4V.7h-2.3v4.4L84.2.7h-2.4v7.7h2.3V4l2.6 4.4z" fill="#f0364e"/></svg>