<?xml version="1.0" encoding="UTF-8" standalone="no"?>
<!-- Generator: Adobe Illustrator 22.1.0, SVG Export Plug-In . SVG Version: 6.00 Build 0)  -->

<svg
   height="858"
   width="1200"
   xmlns:dc="http://purl.org/dc/elements/1.1/"
   xmlns:cc="http://creativecommons.org/ns#"
   xmlns:rdf="http://www.w3.org/1999/02/22-rdf-syntax-ns#"
   xmlns:svg="http://www.w3.org/2000/svg"
   xmlns="http://www.w3.org/2000/svg"
   xmlns:sodipodi="http://sodipodi.sourceforge.net/DTD/sodipodi-0.dtd"
   xmlns:inkscape="http://www.inkscape.org/namespaces/inkscape"
   version="1.1"
   x="0px"
   y="0px"
   viewBox="0 0 1200 858"
   style="enable-background:new 0 0 1200 858;"
   xml:space="preserve"
   id="svg1608"
   sodipodi:docname="logo-en.svg"
   inkscape:version="0.92.3 (d244b95, 2018-08-02)"><metadata
   id="metadata1614"><rdf:RDF><cc:Work
       rdf:about=""><dc:format>image/svg+xml</dc:format><dc:type
         rdf:resource="http://purl.org/dc/dcmitype/StillImage" /><dc:title></dc:title></cc:Work></rdf:RDF></metadata><defs
   id="defs1612" /><sodipodi:namedview
   pagecolor="#ffffff"
   bordercolor="#666666"
   borderopacity="1"
   objecttolerance="10"
   gridtolerance="10"
   guidetolerance="10"
   inkscape:pageopacity="0"
   inkscape:pageshadow="2"
   inkscape:window-width="1863"
   inkscape:window-height="1176"
   id="namedview1610"
   showgrid="false"
   inkscape:zoom="0.55011655"
   inkscape:cx="348.15656"
   inkscape:cy="318.32899"
   inkscape:window-x="57"
   inkscape:window-y="24"
   inkscape:window-maximized="1"
   inkscape:current-layer="Layer_1" />
<style
   type="text/css"
   id="style1530">
	.st0{display:none;}
	.st1{display:inline;fill:#512F70;}
	.st2{fill:#512F70;}
</style>
<g
   id="Layer_2"
   class="st0">
	<rect
   x="119.5"
   y="101"
   class="st1"
   width="961"
   height="680"
   id="rect1532" />
</g>
<g
   id="Layer_1"
   transform="matrix(1.1318149,0,0,1.1318149,-80.811581,-73.708458)">
	<g
   id="g1571">
		<g
   id="g1541">
			<g
   id="g1539">
				<path
   class="st2"
   d="M 71.4,494.7 V 65.1 H 100 L 286.2,277 472.7,65.1 h 28.6 V 494.7 H 415.4 L 415.1,245.5 286.2,388.7 157.4,245.5 v 249.2 z"
   id="path1535"
   inkscape:connector-curvature="0"
   style="fill:#512f70" />
				<polygon
   class="st2"
   points="587.2,414.5 816.9,414.5 816.9,494.7 1131.9,494.7 1131.9,414.5 902.8,414.5 902.8,316.8 1075,316.8 1075,236.9 902.8,236.9 902.8,145.3 1132.5,145.3 1132.5,65.1 816.9,65.4 816.9,145.3 587.2,145.3 587.2,236.9 759.3,236.9 759.3,316.8 587.2,316.8 "
   id="polygon1537"
   style="fill:#512f70" />
			</g>
		</g>
		<g
   id="g1569">
			<path
   class="st2"
   d="m 71.4,657.6 v -81.4 h 5.4 l 35.3,40.2 35.3,-40.2 h 5.4 v 81.4 H 136.5 L 136.4,610.4 112,637.5 87.6,610.4 v 47.2 z"
   id="path1543"
   inkscape:connector-curvature="0"
   style="fill:#512f70" />
			<path
   class="st2"
   d="m 169,576.1 h 16.2 v 81.4 H 169 Z"
   id="path1545"
   inkscape:connector-curvature="0"
   style="fill:#512f70" />
			<path
   class="st2"
   d="M 201.6,657.6 V 576.2 H 233 c 25.3,0 38,13.6 38,40.7 0,27.1 -12.7,40.7 -38,40.7 H 201.6 Z M 233,641.3 c 14.4,0 21.7,-8.2 21.7,-24.5 0,-16.3 -7.3,-24.4 -21.7,-24.4 h -15.1 v 48.9 z"
   id="path1547"
   inkscape:connector-curvature="0"
   style="fill:#512f70" />
			<path
   class="st2"
   d="m 288.4,657.6 v -81.4 h 31.4 c 25.3,0 38,13.6 38,40.7 0,27.1 -12.7,40.7 -38,40.7 z m 31.4,-16.3 c 14.4,0 21.7,-8.2 21.7,-24.5 0,-16.3 -7.3,-24.4 -21.7,-24.4 h -15.1 v 48.9 z"
   id="path1549"
   inkscape:connector-curvature="0"
   style="fill:#512f70" />
			<path
   class="st2"
   d="m 391.7,576.2 v 66.2 h 43.4 v 15.2 h -59.7 v -81.4 z"
   id="path1551"
   inkscape:connector-curvature="0"
   style="fill:#512f70" />
			<path
   class="st2"
   d="m 448.2,657.6 v -81.3 l 59.8,-0.1 v 15.2 h -43.5 v 17.4 h 32.6 v 15.1 h -32.6 v 18.5 h 43.4 v 15.2 z"
   id="path1553"
   inkscape:connector-curvature="0"
   style="fill:#512f70" />
			<path
   class="st2"
   d="m 562.2,657.6 v -81.3 l 59.8,-0.1 v 15.2 h -43.5 v 17.4 h 32.6 v 15.1 h -32.6 v 18.5 h 43.4 v 15.2 z"
   id="path1555"
   inkscape:connector-curvature="0"
   style="fill:#512f70" />
			<path
   class="st2"
   d="m 634.1,657.6 32.6,-81.4 H 683 l 32.5,81.3 -17.3,0.1 -4.9,-12.5 h -36.9 l -4.9,12.5 z m 41.1,-59.7 -12.4,30.9 h 24.4 z"
   id="path1557"
   inkscape:connector-curvature="0"
   style="fill:#512f70" />
			<path
   class="st2"
   d="m 771.6,578.9 c 4.2,1.8 8,4.5 11.7,8.1 l -10.9,10.9 c -3.6,-4.3 -8.7,-6.5 -15.2,-6.5 -6.5,0 -10.7,1.5 -12.5,4.6 -1.8,3.1 -1.8,5.7 0,7.9 1.8,2.2 6,3.8 12.5,4.9 6.9,0.7 13.1,3 18.7,6.8 5.6,3.8 8.4,9.9 8.4,18.2 0,6.5 -3,12.1 -9,16.8 -6,4.7 -13,7.1 -20.9,7.1 -7.6,0 -13.9,-1.1 -18.9,-3.3 -5.1,-2.2 -9.4,-5.1 -13,-8.7 l 10.9,-10.9 c 3.6,4.3 9.8,6.9 18.4,7.6 7.2,0 11.7,-1.5 13.5,-4.6 1.8,-3.1 1.8,-6.1 0,-9.2 -1.8,-3.1 -6.3,-5 -13.5,-5.7 -6.5,-0.7 -12.5,-2.7 -17.9,-6 -5.4,-3.3 -8.1,-8.9 -8.1,-16.8 0,-7.2 3.1,-13 9.3,-17.3 6.2,-4.4 12.5,-6.5 19,-6.5 7.5,-0.1 13.3,0.8 17.5,2.6 z"
   id="path1559"
   inkscape:connector-curvature="0"
   style="fill:#512f70" />
			<path
   class="st2"
   d="m 865.3,576.2 v 15.2 h -27.1 v 66.2 h -16.3 v -66.2 h -27.1 v -15.2 z"
   id="path1561"
   inkscape:connector-curvature="0"
   style="fill:#512f70" />
			<path
   class="st2"
   d="m 915.2,657.6 v -81.3 l 59.8,-0.1 v 15.2 h -43.5 v 17.4 H 964 v 15.1 h -32.6 v 18.5 h 43.4 v 15.2 z"
   id="path1563"
   inkscape:connector-curvature="0"
   style="fill:#512f70" />
			<path
   class="st2"
   d="m 986.6,576.2 h 19.1 l 18.9,26.6 19.3,-26.6 h 18.7 l -29.8,40.7 v 40.7 h -16.3 v -40.7 z"
   id="path1565"
   inkscape:connector-curvature="0"
   style="fill:#512f70" />
			<path
   class="st2"
   d="m 1074.4,657.6 v -81.3 l 59.8,-0.1 v 15.2 h -43.5 v 17.4 h 32.6 v 15.1 h -32.6 v 18.5 h 43.4 v 15.2 z"
   id="path1567"
   inkscape:connector-curvature="0"
   style="fill:#512f70" />
		</g>
	</g>

</g>
</svg>
