<svg id="Layer_1" xmlns="http://www.w3.org/2000/svg" viewBox="0 0 498.65 79.82" width="500" height="90">
    <defs>
        <style>
            .cls-1{fill:#6d6e71}.cls-2{fill:#54575a}.cls-3{fill:#005595}.cls-4{fill:#226093}
        </style>
    </defs>
    <path class="cls-4" d="M55.39 38.9c0 1.31.04 2.41.14 3.31.09.9.27 1.58.54 2.03.5.77 1.56 1.17 3.19 1.22.5.05.99.08 1.46.1.48.02.99.06 1.53.1v1.35c-1.81-.09-3.49-.15-5.03-.17a358.483 358.483 0 0 0-9.32 0c-1.49.02-2.88.08-4.14.17v-1.42c.36-.04.7-.07 1.02-.07s.63-.02.95-.07c.82-.09 1.5-.21 2.04-.37s.93-.44 1.16-.85c.27-.45.45-1.13.54-2.03.09-.9.14-2.01.14-3.31V6.63c-.95 1.44-1.71 2.69-2.28 3.75a72.67 72.67 0 0 0-1.46 2.87l-12.3 25.91c-.41.9-.82 1.83-1.22 2.77-.41.95-.79 1.89-1.16 2.84-.23.5-.43.98-.61 1.45s-.39.96-.61 1.45h-.82L10.05 7.51l-.68.14-.14 31.25c0 1.31.04 2.41.14 3.31.09.9.29 1.58.61 2.03.23.41.59.69 1.09.85.5.16 1.18.28 2.04.37.41.05.86.07 1.36.07s.95.02 1.36.07v1.42c-.41 0-.9-.01-1.46-.03-.57-.02-1.03-.03-1.39-.03-.86-.05-1.71-.08-2.55-.1a107.137 107.137 0 0 0-5.07 0c-.95.02-1.81.06-2.58.1-.41 0-.83.01-1.26.03-.43.02-.87.03-1.33.03V45.6l2.72-.14c.86-.09 1.55-.21 2.07-.37.52-.16.89-.44 1.12-.84.27-.45.45-1.13.54-2.03.09-.9.14-2 .14-3.31V8.17c0-1.31-.05-2.41-.14-3.31-.09-.9-.27-1.58-.54-2.03-.45-.67-1.52-1.08-3.2-1.22-.41-.04-.85-.07-1.33-.07S.63 1.52.18 1.47V0c.32 0 .63.01.95.03.32.02.59.03.82.03.72.05 1.46.08 2.21.1a85.537 85.537 0 0 0 4.52 0c.81-.02 1.56-.06 2.24-.1.27 0 .57-.01.88-.03.32-.02.61-.03.88-.03l18.46 38.69c2.99-6.31 6.04-12.75 9.16-19.31S46.5 6.36 49.48 0c.27 0 .6.01.98.03.38.02.69.03.92.03.77.05 1.51.08 2.21.1.7.02 1.42.03 2.14.03.68 0 1.45-.01 2.31-.03.86-.02 1.61-.06 2.24-.1.27 0 .52-.01.75-.03.23-.02.48-.03.75-.03v1.42l-2.52.2c-1.68.14-2.74.54-3.19 1.22-.27.45-.45 1.13-.54 2.03-.09.9-.14 2-.14 3.31v30.73Z"/>
    <path class="cls-3" d="M80.84 40.87c0 .98.03 1.81.1 2.49.07.68.2 1.18.41 1.52.37.58 1.16.88 2.35.91.41.03.79.06 1.15.08.36.02.72.04 1.1.08v1.01c-1.36-.07-2.61-.11-3.75-.13-1.14-.02-2.3-.03-3.49-.03s-2.44 0-3.65.03c-1.21.02-2.46.06-3.75.13v-1.01c.41-.03.77-.06 1.1-.08.32-.02.71-.04 1.15-.08 1.19-.03 1.97-.34 2.35-.91.2-.34.34-.85.41-1.52.07-.68.1-1.5.1-2.49V17.79c0-.98-.03-1.81-.1-2.49-.07-.68-.2-1.18-.41-1.52-.17-.27-.44-.48-.82-.63-.37-.15-.88-.25-1.53-.28-.41-.03-.79-.06-1.15-.08-.36-.02-.72-.04-1.1-.08V11.7c1.36.07 2.61.11 3.75.13a190.737 190.737 0 0 0 10.89-.12v1.01c-.41.03-.77.06-1.1.08-.32.02-.71.04-1.15.08-.65.03-1.16.13-1.53.28-.37.15-.65.36-.82.63-.2.34-.34.85-.41 1.52-.07.68-.1 1.51-.1 2.49v23.08ZM113.57 19.67l-.31-2.69c-.03-.37-.08-.69-.15-.96-.07-.27-.18-.52-.33-.76-.15-.24-.37-.47-.66-.71a9.42 9.42 0 0 0-1.2-.81c-.78-.47-1.69-.81-2.73-1.01-1.04-.2-2.06-.3-3.08-.3-.92 0-1.85.16-2.8.48-.95.32-1.8.8-2.55 1.45-.75.64-1.36 1.46-1.84 2.44s-.71 2.13-.71 3.45c0 .91.14 1.74.43 2.46.29.73.77 1.37 1.45 1.93.68.56 1.57 1.02 2.68 1.4 1.1.37 2.49.64 4.15.81 1.8.2 3.42.48 4.87.84 1.44.36 2.67.84 3.67 1.45s1.78 1.4 2.32 2.36c.54.97.82 2.16.82 3.58 0 2.17-.44 4.05-1.33 5.64-.88 1.59-2.05 2.91-3.49 3.96a15.468 15.468 0 0 1-4.92 2.36c-1.84.52-3.71.79-5.61.79-1.8 0-3.46-.19-4.97-.58-1.51-.39-2.69-.79-3.54-1.19.14-.98.22-1.95.25-2.92.03-.96.05-1.94.05-2.92v-1.67h1.12l.41 3.25c.07.58.36 1.12.87 1.62s1.17.96 1.99 1.37 1.72.73 2.73.96c1 .24 2.05.35 3.14.35 1.19 0 2.35-.18 3.49-.53 1.14-.36 2.15-.89 3.03-1.6.88-.71 1.6-1.57 2.14-2.59.54-1.01.82-2.18.82-3.5 0-1.25-.23-2.3-.69-3.15-.46-.85-1.1-1.54-1.94-2.08-.83-.54-1.82-.96-2.96-1.24a30.9 30.9 0 0 0-3.7-.69c-2.01-.24-3.71-.57-5.12-.99-1.41-.42-2.56-.98-3.44-1.67-.88-.69-1.53-1.52-1.94-2.49-.41-.96-.61-2.09-.61-3.37 0-1.96.39-3.65 1.17-5.07.78-1.42 1.79-2.59 3.03-3.53a13.21 13.21 0 0 1 4.16-2.08c1.53-.46 3.06-.69 4.59-.69 1.87 0 3.53.22 5 .66 1.46.44 2.74.86 3.82 1.26.03 0 .08 0 .13.03.05.02.09.03.13.03a27.49 27.49 0 0 0-.54 3.5c-.08 1.08-.13 2.2-.13 3.35h-1.17ZM129.38 17.83c0-.98-.03-1.81-.1-2.48-.07-.68-.22-1.18-.46-1.52-.17-.27-.44-.48-.82-.63-.37-.15-.88-.25-1.53-.28-.37-.03-.75-.06-1.12-.08-.37-.02-.75-.04-1.12-.08V11.7c.37 0 .82 0 1.33.03s.92.03 1.22.03c.99.03 1.97.06 2.96.08.99.02 1.97.03 2.96.03 1.26 0 2.51 0 3.77-.03 1.26-.02 2.46-.04 3.62-.08.92-.03 1.79-.05 2.63-.05h5.46c1.07 0 2.1.03 3.08.1a22.36 22.36 0 0 0-.59 3.53c-.12 1.3-.18 2.56-.18 3.78h-1.27v-3.09c0-.37-.03-.7-.1-.99a.903.903 0 0 0-.51-.63c-.68-.24-1.45-.42-2.3-.56-.85-.13-1.73-.24-2.63-.33-.9-.08-1.82-.13-2.74-.15-.92-.02-1.79-.03-2.61-.03-.72 0-1.47.03-2.25.08s-1.57.18-2.35.38v14.25c1.64.1 3.74.15 6.3.15 3.14 0 5.02-.2 5.63-.61.17-.17.29-.38.36-.63s.12-.57.15-.94c.03-.41.08-.8.13-1.19.05-.39.09-.8.13-1.24h1.07c0 .3 0 .65-.03 1.04-.02.39-.03.7-.03.94-.03.64-.06 1.28-.08 1.9-.02.63-.03 1.24-.03 1.85 0 .58 0 1.23.03 1.95.02.73.04 1.38.08 1.95 0 .27 0 .53.03.79.02.25.03.52.03.79h-1.07l-.26-2.79c-.07-.81-.24-1.32-.51-1.52-.31-.2-.92-.36-1.84-.48s-2.18-.18-3.79-.18c-1.33 0-2.52 0-3.56.03-1.04.02-1.95.06-2.74.13v14.86c.78.24 1.57.38 2.35.43.78.05 1.53.08 2.25.08 1.06 0 2.16 0 3.3-.03a62.2 62.2 0 0 0 3.22-.13c1.01-.07 1.88-.14 2.61-.23.73-.08 1.22-.21 1.46-.38.44-.24.83-.85 1.17-1.85.34-1 .61-2.27.82-3.83h1.22c-.24 1.18-.43 2.46-.56 3.83-.14 1.37-.2 2.73-.2 4.08-.24 0-.46 0-.66.03-.2.02-.46.03-.77.03a197.13 197.13 0 0 1-6.79.11h-1.73c-.54 0-1.26 0-2.14-.03-.88-.02-1.6-.03-2.14-.03-1.26-.03-2.48-.06-3.67-.08-1.19-.02-2.29-.03-3.31-.03-.61 0-1.24 0-1.89.03-.65.02-1.24.04-1.78.08-.27 0-.54 0-.82.03-.27.02-.54.03-.82.03v-1.01c.31-.03.58-.06.82-.08.24-.02.51-.04.82-.08.65-.07 1.15-.16 1.53-.28.37-.12.65-.33.82-.63.24-.34.39-.84.46-1.52s.1-1.5.1-2.48V17.86Z"/>
    <path class="cls-4" d="m179.95 19.67-.31-2.69c-.03-.37-.08-.69-.15-.96-.07-.27-.18-.52-.33-.76-.15-.24-.37-.47-.66-.71a9.42 9.42 0 0 0-1.2-.81c-.78-.47-1.69-.81-2.73-1.01-1.04-.2-2.06-.3-3.08-.3-.92 0-1.85.16-2.8.48-.95.32-1.8.8-2.55 1.45-.75.64-1.36 1.46-1.84 2.44s-.71 2.13-.71 3.45c0 .91.14 1.74.43 2.46.29.73.77 1.37 1.45 1.93.68.56 1.57 1.02 2.68 1.4 1.1.37 2.49.64 4.15.81 1.8.2 3.42.48 4.87.84 1.44.36 2.67.84 3.67 1.45s1.78 1.4 2.32 2.36c.54.97.82 2.16.82 3.58 0 2.17-.44 4.05-1.33 5.64-.88 1.59-2.05 2.91-3.49 3.96a15.468 15.468 0 0 1-4.92 2.36c-1.84.52-3.71.79-5.61.79-1.8 0-3.46-.19-4.97-.58-1.51-.39-2.69-.79-3.54-1.19.14-.98.22-1.95.25-2.92.03-.96.05-1.94.05-2.92v-1.67h1.12l.41 3.25c.07.58.36 1.12.87 1.62s1.17.96 1.99 1.37 1.72.73 2.73.96c1 .24 2.05.35 3.14.35 1.19 0 2.35-.18 3.49-.53 1.14-.36 2.15-.89 3.03-1.6.88-.71 1.6-1.57 2.14-2.59.54-1.01.82-2.18.82-3.5 0-1.25-.23-2.3-.69-3.15-.46-.85-1.1-1.54-1.94-2.08-.83-.54-1.82-.96-2.96-1.24a30.9 30.9 0 0 0-3.7-.69c-2.01-.24-3.71-.57-5.12-.99-1.41-.42-2.56-.98-3.44-1.67-.88-.69-1.53-1.52-1.94-2.49-.41-.96-.61-2.09-.61-3.37 0-1.96.39-3.65 1.17-5.07.78-1.42 1.79-2.59 3.03-3.53a13.21 13.21 0 0 1 4.16-2.08c1.53-.46 3.06-.69 4.59-.69 1.87 0 3.53.22 5 .66 1.46.44 2.74.86 3.82 1.26.03 0 .08 0 .13.03.05.02.09.03.13.03a27.49 27.49 0 0 0-.54 3.5c-.08 1.08-.13 2.2-.13 3.35h-1.17Z"/>
    <path class="cls-2" d="M204.37 38.89c0 1.31.04 2.41.14 3.31.09.9.27 1.58.54 2.03.5.77 1.54 1.17 3.13 1.22.54.05 1.05.08 1.53.1.48.02.96.06 1.46.1V47c-1.81-.09-3.48-.15-5-.17-1.52-.02-3.07-.03-4.66-.03s-3.25.01-4.86.03c-1.61.02-3.27.08-5 .17v-1.35c.54-.04 1.03-.08 1.46-.1.43-.02.94-.06 1.53-.1 1.59-.04 2.63-.45 3.13-1.22.27-.45.45-1.13.54-2.03.09-.9.14-2.01.14-3.31V8.12c0-1.31-.05-2.41-.14-3.31-.09-.9-.27-1.58-.54-2.03-.23-.36-.59-.64-1.09-.85-.5-.2-1.18-.33-2.04-.37-.54-.04-1.05-.08-1.53-.1-.48-.02-.96-.06-1.46-.1V0c1.81.09 3.48.15 5 .17 1.52.02 3.14.03 4.86.03 2.95 0 6.16-.07 9.65-.2v1.35c-.54.05-1.03.08-1.46.1-.43.02-.94.06-1.53.1-.86.05-1.54.17-2.04.37-.5.2-.86.49-1.09.85-.27.45-.45 1.13-.54 2.03-.09.9-.14 2.01-.14 3.31v30.78ZM225.14 17.83c0-.98-.03-1.8-.1-2.48-.07-.67-.2-1.18-.41-1.52-.37-.51-1.17-.81-2.4-.91-.31-.03-.65-.05-1.02-.05s-.71-.02-1.02-.05V11.7c.34 0 .73 0 1.17.03.44.02.8.03 1.07.03.68.03 1.33.06 1.94.08.61.02 1.21.03 1.78.03.27 0 .58 0 .92-.03.34-.02.65-.04.92-.08.17 0 .31 0 .43-.03.12-.02.26-.03.43-.03l25.08 30.84.15-24.71c0-.98-.03-1.81-.1-2.48-.07-.68-.2-1.18-.41-1.52-.34-.51-1.14-.81-2.4-.91-.31-.03-.64-.05-.99-.05s-.71-.02-1.04-.05V11.7c.31 0 .64 0 .99.03s.67.03.94.03c.68.03 1.34.06 1.99.08.65.02 1.26.03 1.83.03s1.21 0 1.91-.03c.7-.02 1.33-.04 1.91-.08.37 0 .72 0 1.05-.03.32-.02.69-.03 1.1-.03v1.12l-2.04.1c-1.22.1-2.02.41-2.4.91-.2.34-.34.84-.41 1.52-.07.68-.1 1.5-.1 2.48V46.2c0 .2 0 .43.03.68.02.25.04.46.08.63v.25c-.78-.14-1.49-.26-2.12-.38-.63-.12-1.33-.25-2.12-.38l-24.73-30.59-.1 24.41c0 .98.03 1.81.1 2.48.07.68.2 1.18.41 1.52.17.3.45.52.84.63.39.12.91.21 1.56.28.31.03.64.05.99.05s.71.02 1.04.05v1.12c-.34 0-.71 0-1.12-.03-.41-.02-.75-.03-1.02-.03-.65-.03-1.28-.06-1.91-.08-.63-.02-1.27-.03-1.91-.03-.54 0-1.17 0-1.89.03-.71.02-1.36.04-1.94.08-.31 0-.63 0-.97.03-.34.02-.66.03-.97.03v-1.12l2.04-.1c.65-.07 1.16-.16 1.53-.28.37-.12.66-.33.87-.63.2-.34.34-.84.41-1.52.07-.67.1-1.5.1-2.48V17.81ZM288.2 19.67l-.31-2.69c-.03-.37-.08-.69-.15-.96-.07-.27-.18-.52-.33-.76-.15-.24-.37-.47-.66-.71a9.42 9.42 0 0 0-1.2-.81c-.78-.47-1.69-.81-2.73-1.01-1.04-.2-2.07-.3-3.08-.3-.92 0-1.85.16-2.8.48-.95.32-1.8.8-2.55 1.45-.75.64-1.36 1.46-1.84 2.44s-.71 2.13-.71 3.45c0 .91.14 1.74.43 2.46.29.73.77 1.37 1.45 1.93.68.56 1.57 1.02 2.68 1.4 1.1.37 2.49.64 4.16.81 1.8.2 3.42.48 4.87.84 1.44.36 2.67.84 3.67 1.45s1.78 1.4 2.32 2.36c.54.97.82 2.16.82 3.58 0 2.17-.44 4.05-1.33 5.64-.88 1.59-2.05 2.91-3.49 3.96-1.44 1.05-3.08 1.84-4.92 2.36-1.83.52-3.7.79-5.61.79-1.8 0-3.46-.19-4.97-.58-1.51-.39-2.69-.79-3.54-1.19.14-.98.22-1.95.25-2.92.03-.96.05-1.94.05-2.92v-1.67h1.12l.41 3.25c.07.58.36 1.12.87 1.62s1.17.96 1.99 1.37 1.72.73 2.73.96c1 .24 2.05.35 3.14.35 1.19 0 2.35-.18 3.49-.53 1.14-.36 2.15-.89 3.03-1.6.88-.71 1.6-1.57 2.14-2.59.54-1.01.82-2.18.82-3.5 0-1.25-.23-2.3-.69-3.15-.46-.85-1.1-1.54-1.94-2.08-.83-.54-1.82-.96-2.96-1.24a30.9 30.9 0 0 0-3.7-.69c-2.01-.24-3.71-.57-5.12-.99-1.41-.42-2.56-.98-3.44-1.67-.88-.69-1.53-1.52-1.94-2.49-.41-.96-.61-2.09-.61-3.37 0-1.96.39-3.65 1.17-5.07.78-1.42 1.79-2.59 3.03-3.53a13.21 13.21 0 0 1 4.16-2.08c1.53-.46 3.06-.69 4.59-.69 1.87 0 3.54.22 5 .66s2.74.86 3.82 1.26c.03 0 .08 0 .13.03.05.02.09.03.13.03a27.49 27.49 0 0 0-.54 3.5c-.09 1.08-.13 2.2-.13 3.35h-1.17ZM310.94 19.11c0-.88-.02-1.75-.05-2.61-.03-.86-.1-1.78-.2-2.77h-8.21c-.88 0-1.48.14-1.78.43-.31.29-.49.79-.56 1.5-.03.68-.07 1.32-.1 1.93-.03.61-.07 1.24-.1 1.88h-1.07c0-1.29-.02-2.58-.05-3.88-.03-1.3-.12-2.6-.25-3.88.92 0 1.79 0 2.63.03.83.02 1.71.04 2.62.08.95.03 1.89.05 2.8.05h13.1c.92 0 1.85-.02 2.8-.05.85-.03 1.72-.06 2.62-.08s1.78-.03 2.63-.03c-.14 1.29-.22 2.58-.25 3.88-.03 1.3-.05 2.6-.05 3.88h-1.07l-.2-3.81c-.07-.71-.25-1.21-.56-1.5-.31-.29-.9-.43-1.78-.43h-8.26c-.07.78-.12 1.61-.15 2.49-.03.88-.05 1.84-.05 2.89v21.76c0 .98.03 1.81.1 2.49.07.68.2 1.18.41 1.52.37.58 1.16.88 2.34.91.41.03.79.06 1.15.08.36.02.72.04 1.1.08v1.01c-1.36-.07-2.61-.11-3.75-.13-1.14-.02-2.3-.03-3.49-.03s-2.44 0-3.64.03c-1.21.02-2.46.06-3.75.13v-1.01c.41-.03.77-.06 1.1-.08.32-.02.71-.04 1.15-.08 1.19-.03 1.97-.34 2.35-.91.2-.34.34-.85.41-1.52.07-.68.1-1.5.1-2.49V19.11ZM343.97 40.87c0 .98.03 1.81.1 2.49.07.68.2 1.18.41 1.52.37.58 1.15.88 2.34.91.41.03.79.06 1.15.08.36.02.72.04 1.1.08v1.01c-1.36-.07-2.61-.11-3.75-.13-1.14-.02-2.3-.03-3.49-.03s-2.44 0-3.65.03c-1.21.02-2.46.06-3.75.13v-1.01c.41-.03.77-.06 1.1-.08.32-.02.7-.04 1.15-.08 1.19-.03 1.97-.34 2.35-.91.2-.34.34-.85.41-1.52.07-.68.1-1.5.1-2.49V17.79c0-.98-.03-1.81-.1-2.49-.07-.68-.2-1.18-.41-1.52-.17-.27-.44-.48-.82-.63-.37-.15-.88-.25-1.53-.28-.41-.03-.79-.06-1.15-.08-.36-.02-.72-.04-1.1-.08V11.7c1.36.07 2.61.11 3.75.13a190.737 190.737 0 0 0 10.89-.12v1.01c-.41.03-.77.06-1.1.08-.32.02-.71.04-1.15.08-.65.03-1.16.13-1.53.28-.37.15-.65.36-.82.63-.2.34-.34.85-.41 1.52-.07.68-.1 1.51-.1 2.49v23.08ZM368.14 19.11c0-.88-.02-1.75-.05-2.61-.03-.86-.1-1.78-.2-2.77h-8.21c-.88 0-1.48.14-1.78.43-.31.29-.49.79-.56 1.5-.03.68-.07 1.32-.1 1.93-.03.61-.07 1.24-.1 1.88h-1.07c0-1.29-.02-2.58-.05-3.88-.03-1.3-.12-2.6-.25-3.88.92 0 1.79 0 2.63.03.83.02 1.71.04 2.62.08.95.03 1.89.05 2.8.05h13.1c.92 0 1.85-.02 2.8-.05.85-.03 1.72-.06 2.62-.08s1.78-.03 2.63-.03c-.14 1.29-.22 2.58-.25 3.88-.03 1.3-.05 2.6-.05 3.88h-1.07l-.2-3.81c-.07-.71-.25-1.21-.56-1.5-.31-.29-.9-.43-1.78-.43h-8.26c-.07.78-.12 1.61-.15 2.49-.03.88-.05 1.84-.05 2.89v21.76c0 .98.03 1.81.1 2.49.07.68.2 1.18.41 1.52.37.58 1.16.88 2.34.91.41.03.79.06 1.15.08.36.02.72.04 1.1.08v1.01c-1.36-.07-2.61-.11-3.75-.13-1.14-.02-2.3-.03-3.49-.03s-2.44 0-3.64.03c-1.21.02-2.46.06-3.75.13v-1.01c.41-.03.77-.06 1.1-.08.32-.02.71-.04 1.15-.08 1.19-.03 1.97-.34 2.35-.91.2-.34.34-.85.41-1.52.07-.68.1-1.5.1-2.49V19.11ZM396.23 17.79c0-.98-.03-1.81-.1-2.49-.07-.68-.2-1.18-.41-1.52-.17-.27-.44-.48-.82-.63-.37-.15-.9-.25-1.58-.28-.37-.03-.74-.06-1.1-.08-.36-.02-.72-.04-1.1-.08V11.7c1.33.07 2.57.11 3.72.13a189.646 189.646 0 0 0 10.86-.12v1.01c-.41.03-.78.06-1.12.08-.34.02-.71.04-1.12.08-.65.03-1.16.13-1.53.28-.38.15-.66.36-.87.63-.2.34-.34.85-.41 1.52-.07.68-.1 1.51-.1 2.49v17.7c0 1.89.24 3.46.72 4.69.48 1.23 1.18 2.22 2.12 2.97.94.74 2.09 1.27 3.45 1.57 1.36.3 2.91.46 4.65.46 1.43 0 2.81-.16 4.14-.48a8.8 8.8 0 0 0 3.5-1.7c1-.81 1.81-1.93 2.4-3.35s.89-3.23.89-5.43V17.79c0-.98-.03-1.81-.1-2.49-.07-.68-.2-1.18-.41-1.52-.34-.51-1.12-.81-2.34-.91-.34-.03-.69-.05-1.05-.05s-.69-.02-.99-.05v-1.06c.27 0 .59 0 .97.03s.7.03.97.03c.68.03 1.33.06 1.96.08.63.02 1.25.03 1.86.03.58 0 1.21 0 1.89-.03.68-.02 1.33-.04 1.94-.08.37 0 .72 0 1.04-.03s.67-.03 1.04-.03v1.06l-1.99.1c-1.26.1-2.06.41-2.4.91-.2.34-.34.85-.41 1.52-.07.68-.1 1.51-.1 2.49v14.86c0 2.71-.27 5.01-.82 6.92-.54 1.91-1.39 3.48-2.55 4.69-1.16 1.22-2.64 2.11-4.46 2.69s-4 .86-6.55.86c-2.14 0-4.06-.18-5.76-.53-1.7-.35-3.14-.98-4.31-1.88-1.17-.9-2.07-2.11-2.7-3.63-.63-1.52-.94-3.43-.94-5.73V17.78ZM447.72 19.11c0-.88-.02-1.75-.05-2.61-.03-.86-.1-1.78-.2-2.77h-8.21c-.88 0-1.48.14-1.78.43-.31.29-.49.79-.56 1.5-.03.68-.07 1.32-.1 1.93-.03.61-.07 1.24-.1 1.88h-1.07c0-1.29-.02-2.58-.05-3.88-.03-1.3-.12-2.6-.25-3.88.92 0 1.79 0 2.63.03.83.02 1.71.04 2.62.08.95.03 1.89.05 2.8.05h13.1c.92 0 1.85-.02 2.8-.05.85-.03 1.72-.06 2.62-.08s1.78-.03 2.63-.03c-.14 1.29-.22 2.58-.25 3.88-.03 1.3-.05 2.6-.05 3.88h-1.07l-.2-3.81c-.07-.71-.25-1.21-.56-1.5-.31-.29-.9-.43-1.78-.43h-8.26c-.07.78-.12 1.61-.15 2.49-.03.88-.05 1.84-.05 2.89v21.76c0 .98.03 1.81.1 2.49.07.68.2 1.18.41 1.52.37.58 1.16.88 2.34.91.41.03.79.06 1.15.08.36.02.72.04 1.1.08v1.01c-1.36-.07-2.61-.11-3.75-.13-1.14-.02-2.3-.03-3.49-.03s-2.44 0-3.64.03c-1.21.02-2.46.06-3.75.13v-1.01c.41-.03.77-.06 1.1-.08.32-.02.71-.04 1.15-.08 1.19-.03 1.97-.34 2.35-.91.2-.34.34-.85.41-1.52.07-.68.1-1.5.1-2.49V19.11ZM475.91 17.83c0-.98-.03-1.81-.1-2.48-.07-.68-.22-1.18-.46-1.52-.17-.27-.44-.48-.82-.63-.38-.15-.88-.25-1.53-.28-.37-.03-.75-.06-1.12-.08-.38-.02-.75-.04-1.12-.08V11.7c.37 0 .82 0 1.33.03.51.02.92.03 1.22.03.99.03 1.97.06 2.96.08.99.02 1.97.03 2.96.03 1.26 0 2.52 0 3.77-.03 1.26-.02 2.46-.04 3.62-.08.92-.03 1.79-.05 2.63-.05h5.46c1.07 0 2.1.03 3.08.1a22.36 22.36 0 0 0-.59 3.53c-.12 1.3-.18 2.56-.18 3.78h-1.27v-3.09c0-.37-.03-.7-.1-.99a.903.903 0 0 0-.51-.63c-.68-.24-1.45-.42-2.3-.56-.85-.13-1.73-.24-2.63-.33-.9-.08-1.82-.13-2.74-.15-.92-.02-1.79-.03-2.61-.03-.72 0-1.47.03-2.25.08s-1.57.18-2.35.38v14.25c1.64.1 3.74.15 6.3.15 3.14 0 5.02-.2 5.63-.61.17-.17.29-.38.36-.63s.12-.57.15-.94c.03-.41.08-.8.13-1.19.05-.39.09-.8.13-1.24h1.07c0 .3 0 .65-.03 1.04-.02.39-.03.7-.03.94-.03.64-.06 1.28-.08 1.9-.02.63-.03 1.24-.03 1.85 0 .58 0 1.23.03 1.95.02.73.04 1.38.08 1.95 0 .27 0 .53.03.79.02.25.03.52.03.79h-1.07l-.26-2.79c-.07-.81-.24-1.32-.51-1.52-.31-.2-.92-.36-1.84-.48s-2.18-.18-3.79-.18c-1.33 0-2.52 0-3.56.03-1.04.02-1.95.06-2.74.13v14.86c.78.24 1.57.38 2.35.43s1.53.08 2.25.08c1.06 0 2.16 0 3.3-.03a62.2 62.2 0 0 0 3.22-.13c1.01-.07 1.88-.14 2.61-.23.73-.08 1.22-.21 1.46-.38.44-.24.83-.85 1.17-1.85.34-1 .61-2.27.82-3.83h1.22c-.24 1.18-.43 2.46-.56 3.83-.14 1.37-.2 2.73-.2 4.08-.24 0-.46 0-.66.03-.2.02-.46.03-.76.03a197.13 197.13 0 0 1-6.79.11h-1.73c-.54 0-1.26 0-2.14-.03-.88-.02-1.6-.03-2.14-.03-1.26-.03-2.48-.06-3.67-.08-1.19-.02-2.29-.03-3.31-.03-.61 0-1.24 0-1.89.03-.65.02-1.24.04-1.79.08-.27 0-.54 0-.82.03-.27.02-.54.03-.82.03v-1.01c.31-.03.58-.06.82-.08.24-.02.51-.04.82-.08.65-.07 1.16-.16 1.53-.28.37-.12.64-.33.82-.63.24-.34.39-.84.46-1.52s.1-1.5.1-2.48V17.86Z"/>
    <path class="cls-1" d="M4.66 64.54h1.73l4.95 12.77H9.53l-1.42-3.89H3.03l-1.34 3.89H0l4.66-12.77Zm-1.17 7.54h4.12l-1.27-3.55c-.31-.84-.58-1.62-.83-2.66h-.03c-.15.84-.36 1.64-.64 2.44L3.5 72.07ZM22.63 64.54v7.38c0 1.69 0 5.6-4.75 5.6s-4.8-3.34-4.8-5.6v-7.38h1.61v7.37c0 1.55 0 4.1 3.05 4.1s3.27-1.8 3.27-4.1v-7.37h1.61ZM27.54 73.06c.02.29.08.82.32 1.3.68 1.37 2.36 1.64 3.25 1.64 1.68 0 3.02-.75 3.02-2.18 0-1.5-1.22-1.82-3.68-2.44-1.58-.39-3.97-.98-3.97-3.53 0-1.98 1.56-3.53 4.26-3.53s4.48 1.32 4.56 3.83l-1.54.12c-.08-.93-.44-2.44-2.95-2.44-1.05 0-2.8.32-2.8 1.91 0 1.11.68 1.52 2.9 2.03 2.22.52 4.76 1.12 4.76 3.92 0 2.12-1.73 3.82-4.49 3.82-2.92 0-4.24-1.18-4.87-2.75-.27-.7-.29-1.23-.31-1.57l1.53-.14ZM42.18 66.05H38.2v-1.52h9.61v1.52h-4.02v11.26h-1.61V66.05ZM50.81 64.54h5.37c.85 0 1.63.02 2.42.34 1.24.5 1.9 1.82 1.9 3.16 0 2.05-1.34 3.16-3.41 3.44v.04c.61.3 1.34.77 2.29 2.32l2.12 3.48h-2.02l-1.59-2.64c-1.73-2.87-2.29-3-3.63-3h-1.85v5.64H50.8V64.55Zm1.61 5.62h3.68c.64 0 1.61-.07 2.14-.61.39-.39.61-.95.61-1.52 0-.8-.42-1.44-.93-1.73-.51-.29-1.03-.36-1.66-.36h-3.83v4.21ZM64.52 64.54h1.61v12.77h-1.61V64.54ZM73.58 64.54h1.73l4.95 12.77h-1.81l-1.42-3.89h-5.07l-1.34 3.89h-1.7l4.66-12.77Zm-1.17 7.54h4.12l-1.27-3.55c-.31-.84-.58-1.62-.83-2.66h-.03c-.15.84-.36 1.64-.64 2.44l-1.34 3.76ZM82.85 64.54h1.64l6.34 10.02h.03V64.54h1.53v12.77h-1.64l-6.34-10.02h-.03v10.02h-1.53V64.54ZM102.34 64.54h8.78v1.52h-7.17v3.91h6.71v1.52h-6.71v4.32h7.46v1.52h-9.07V64.56ZM125.15 73.26c-.93 3.84-3.71 4.26-5.02 4.26-2.1 0-3.36-.77-4.12-1.68-1.24-1.5-1.58-3.58-1.58-5.01 0-4.5 2.75-6.51 5.71-6.51 2.17 0 4.09 1.11 4.8 3.73l-1.58.39c-.32-1.03-1-2.68-3.24-2.68-3.34 0-4.03 3-4.03 5.05 0 .55.03 2.69 1.05 3.94.75.93 1.83 1.32 2.85 1.32 2.31 0 3.24-1.69 3.56-3.25l1.59.43ZM133.69 64.32c3.31 0 5.8 2.52 5.8 6.62s-2.56 6.58-5.8 6.58c-3.8 0-5.81-3.17-5.81-6.44 0-4.53 2.66-6.76 5.81-6.76Zm-.02 11.75c2.22 0 4.15-1.62 4.15-5.14s-2.05-5.17-4.12-5.17c-1.29 0-2.58.59-3.31 1.71-.86 1.28-.86 3.23-.86 3.64 0 2.96 1.68 4.96 4.14 4.96ZM142.87 64.54h1.64l6.34 10.02h.03V64.54h1.53v12.77h-1.64l-6.34-10.02h-.03v10.02h-1.53V64.54ZM161.65 64.32c3.31 0 5.8 2.52 5.8 6.62s-2.56 6.58-5.8 6.58c-3.8 0-5.81-3.17-5.81-6.44 0-4.53 2.66-6.76 5.81-6.76Zm-.02 11.75c2.22 0 4.15-1.62 4.15-5.14s-2.05-5.17-4.12-5.17c-1.29 0-2.58.59-3.31 1.71-.86 1.28-.86 3.23-.86 3.64 0 2.96 1.68 4.96 4.14 4.96ZM170.79 64.54h2.41l2.86 9.04c.41 1.27.47 1.52.56 1.89h.03c.2-.7.25-.84.64-2.05l2.9-8.88h2.14v12.77h-1.53V66.63h-.03l-3.49 10.68h-1.44l-3.48-10.86h-.05v10.86h-1.53V64.54ZM186.44 64.54h1.61v12.77h-1.61V64.54ZM202.44 73.26c-.93 3.84-3.71 4.26-5.02 4.26-2.1 0-3.36-.77-4.12-1.68-1.24-1.5-1.58-3.58-1.58-5.01 0-4.5 2.75-6.51 5.71-6.51 2.17 0 4.09 1.11 4.8 3.73l-1.58.39c-.32-1.03-1-2.68-3.24-2.68-3.34 0-4.03 3-4.03 5.05 0 .55.03 2.69 1.05 3.94.75.93 1.83 1.32 2.85 1.32 2.31 0 3.24-1.69 3.56-3.25l1.59.43ZM206.66 73.06c.02.29.08.82.32 1.3.68 1.37 2.36 1.64 3.25 1.64 1.68 0 3.02-.75 3.02-2.18 0-1.5-1.22-1.82-3.68-2.44-1.58-.39-3.97-.98-3.97-3.53 0-1.98 1.56-3.53 4.26-3.53s4.48 1.32 4.56 3.83l-1.54.12c-.08-.93-.44-2.44-2.95-2.44-1.05 0-2.8.32-2.8 1.91 0 1.11.68 1.52 2.9 2.03 2.22.52 4.76 1.12 4.76 3.92 0 2.12-1.73 3.82-4.49 3.82-2.92 0-4.24-1.18-4.87-2.75-.27-.7-.29-1.23-.31-1.57l1.53-.14ZM218.13 75.52h1.7v1.78c0 .61 0 1.89-1.39 2.51l-.41-.66c.8-.38.92-1.11.93-1.86h-.83v-1.78ZM229.93 64.54h8.19v1.52h-6.58v3.96h5.7v1.52h-5.7v5.78h-1.61V64.55ZM241.55 64.54h5.37c.85 0 1.63.02 2.42.34 1.24.5 1.9 1.82 1.9 3.16 0 2.05-1.34 3.16-3.41 3.44v.04c.61.3 1.34.77 2.29 2.32l2.12 3.48h-2.02l-1.59-2.64c-1.73-2.87-2.29-3-3.63-3h-1.85v5.64h-1.61V64.55Zm1.61 5.62h3.68c.64 0 1.61-.07 2.14-.61.39-.39.61-.95.61-1.52 0-.8-.42-1.44-.93-1.73-.51-.29-1.03-.36-1.66-.36h-3.83v4.21ZM255.04 64.54h8.78v1.52h-7.17v3.91h6.71v1.52h-6.71v4.32h7.46v1.52h-9.07V64.56ZM267.62 64.54h8.78v1.52h-7.17v3.91h6.71v1.52h-6.71v4.32h7.46v1.52h-9.07V64.56ZM280.21 64.54h4.19c1.37 0 3.1 0 4.37 1.55.69.84 1.47 2.19 1.47 4.76 0 2.37-.7 4.12-1.75 5.17-1 1-2.47 1.28-3.92 1.28h-4.37V64.53Zm1.61 11.26h2.59c1.42 0 4.17.02 4.17-4.98.02-1.36-.2-2.94-1.31-3.96-.85-.8-1.86-.8-2.92-.8h-2.54v9.74ZM298.97 64.32c3.31 0 5.8 2.52 5.8 6.62s-2.56 6.58-5.8 6.58c-3.8 0-5.81-3.17-5.81-6.44 0-4.53 2.66-6.76 5.81-6.76Zm-.02 11.75c2.22 0 4.15-1.62 4.15-5.14s-2.05-5.17-4.12-5.17c-1.29 0-2.58.59-3.31 1.71-.86 1.28-.86 3.23-.86 3.64 0 2.96 1.68 4.96 4.14 4.96ZM308.1 64.54h2.41l2.87 9.04c.41 1.27.47 1.52.56 1.89h.03c.2-.7.25-.84.64-2.05l2.9-8.88h2.14v12.77h-1.53V66.63h-.03l-3.49 10.68h-1.44l-3.47-10.86h-.05v10.86h-1.53V64.54ZM323.73 75.52h1.7v1.78c0 .61 0 1.89-1.39 2.51l-.41-.66c.8-.38.92-1.11.93-1.86h-.83v-1.78ZM338.81 64.54h1.73l4.95 12.77h-1.81l-1.42-3.89h-5.07l-1.34 3.89h-1.7l4.66-12.77Zm-1.17 7.54h4.12l-1.27-3.55c-.3-.84-.58-1.62-.83-2.66h-.03c-.15.84-.36 1.64-.64 2.44l-1.34 3.76ZM348.08 64.54h1.64l6.34 10.02h.03V64.54h1.53v12.77h-1.64l-6.34-10.02h-.03v10.02h-1.53V64.54ZM361.6 64.54h4.19c1.37 0 3.1 0 4.37 1.55.7.84 1.47 2.19 1.47 4.76 0 2.37-.69 4.12-1.75 5.17-1 1-2.47 1.28-3.92 1.28h-4.37V64.53Zm1.61 11.26h2.59c1.42 0 4.17.02 4.17-4.98.02-1.36-.2-2.94-1.3-3.96-.85-.8-1.87-.8-2.92-.8h-2.54v9.74ZM381.04 64.54h4.58c1.08 0 2.53 0 3.51.86.83.71 1.17 1.84 1.17 2.84s-.29 2.05-1.02 2.82c-.9.95-2.44 1.09-3.36 1.09h-3.27v5.17h-1.61V64.55Zm1.61 6.08h3.12c.88 0 2.87-.09 2.87-2.34 0-.54-.15-1.21-.66-1.69-.56-.54-1.24-.54-2.24-.54h-3.08v4.57ZM393.65 64.54h8.78v1.52h-7.17v3.91h6.71v1.52h-6.71v4.32h7.46v1.52h-9.07V64.56ZM409.52 64.54h1.73l4.95 12.77h-1.81l-1.42-3.89h-5.07l-1.34 3.89h-1.7l4.66-12.77Zm-1.17 7.54h4.12l-1.27-3.55c-.3-.84-.58-1.62-.83-2.66h-.03c-.15.84-.36 1.64-.64 2.44l-1.34 3.76ZM428.52 73.26c-.93 3.84-3.71 4.26-5.02 4.26-2.1 0-3.36-.77-4.12-1.68-1.24-1.5-1.58-3.58-1.58-5.01 0-4.5 2.75-6.51 5.71-6.51 2.17 0 4.09 1.11 4.8 3.73l-1.58.39c-.32-1.03-1-2.68-3.24-2.68-3.34 0-4.03 3-4.03 5.05 0 .55.03 2.69 1.05 3.94.75.93 1.83 1.32 2.85 1.32 2.31 0 3.24-1.69 3.56-3.25l1.59.43ZM431.79 64.54h8.78v1.52h-7.17v3.91h6.71v1.52h-6.71v4.32h7.46v1.52h-9.07V64.56Z"/>
</svg>
