<svg xmlns="http://www.w3.org/2000/svg" viewBox="0 0 684.98 226.03"><defs><style>.cls-1{fill:#fff;}</style></defs><g id="Layer_2" data-name="Layer 2"><g id="Layer_1-2" data-name="Layer 1"><polygon class="cls-1" points="324.1 28.55 292.93 0 159.21 0 189.78 28.55 324.1 28.55"/><polygon class="cls-1" points="598.11 0 572.4 0 518.66 0 518.67 0 475.43 0 420.61 51.2 365.79 0 322.55 0 383.71 57.11 398.99 71.38 383.7 85.66 322.56 142.76 365.8 142.76 420.61 91.57 475.43 142.76 518.66 142.76 442.23 71.38 491.13 25.71 572.4 25.71 572.4 142.76 598.11 142.76 598.11 25.71 655.78 25.71 683.31 0 598.11 0"/><polygon class="cls-1" points="354.67 85.66 369.95 71.38 354.67 57.11 204.56 57.11 204.56 85.66 354.67 85.66"/><polygon class="cls-1" points="183.04 114.22 183.04 91.57 183.04 51.2 128.22 0 128.22 0 84.98 0 84.99 0 28.55 0 0 0 0 28.55 0 142.76 28.55 142.76 28.55 28.55 115.56 28.55 146.14 57.11 154.49 64.91 154.49 77.86 154.49 118.24 154.49 142.76 170.96 142.76 170.96 142.77 292.93 142.77 324.11 114.22 183.04 114.22"/><path class="cls-1" d="M.15,195.27a12.6,12.6,0,0,1,.29-2.72,6.89,6.89,0,0,1,1-2.32,5,5,0,0,1,1.8-1.64A5.46,5.46,0,0,1,5.91,188a6.44,6.44,0,0,1,3.07.77,11.05,11.05,0,0,1,2.74,2.14l24,25V188.51h7.77v30.22a11,11,0,0,1-.32,2.73,7.22,7.22,0,0,1-1,2.32,5.15,5.15,0,0,1-1.77,1.64,5.43,5.43,0,0,1-2.67.61,6.23,6.23,0,0,1-3.17-.77,12.11,12.11,0,0,1-2.64-2.14l-24-24.94V225.5H.15Z"/><path class="cls-1" d="M58.86,194.43a6,6,0,0,1,.45-2.35,5.65,5.65,0,0,1,1.24-1.88,5.79,5.79,0,0,1,4.12-1.69H98.6V196H66.68v6.82H94.37v7.5H66.68V218H98.6v7.51H64.94a5.92,5.92,0,0,1-2.38-.48,6.29,6.29,0,0,1-1.93-1.27,5.79,5.79,0,0,1-1.3-1.85,5.41,5.41,0,0,1-.47-2.21Z"/><path class="cls-1" d="M112.86,188.51h8.46l7.82,30.07H131l6.18-21.19,4.55,13.79-2.86,9.09a8.57,8.57,0,0,1-2.56,4.17,7.05,7.05,0,0,1-4.78,1.53h-3.12a6.68,6.68,0,0,1-4.65-1.53,8.56,8.56,0,0,1-2.43-4.23Zm25.47,0h8.46L157,218.58h1.79l7.93-30.07h8.4l-9,31.65a8.78,8.78,0,0,1-2.51,4.31,7.22,7.22,0,0,1-4.89,1.5H156a6.22,6.22,0,0,1-4.52-1.56,9.74,9.74,0,0,1-2.46-4.25Z"/><path class="cls-1" d="M188.06,218h36.72v-7.66H194a6.12,6.12,0,0,1-2.36-.45,5.71,5.71,0,0,1-1.87-1.24,5.57,5.57,0,0,1-1.24-1.85,5.71,5.71,0,0,1-.45-2.27V194.43a6,6,0,0,1,.45-2.35,5.5,5.5,0,0,1,1.24-1.88,5.79,5.79,0,0,1,4.12-1.69h34.56V196H195.82v6.82h30.81a5.87,5.87,0,0,1,2.35.47,6.17,6.17,0,0,1,1.88,1.27,5.84,5.84,0,0,1,1.24,1.85,5.65,5.65,0,0,1,.45,2.22v10.94a5.74,5.74,0,0,1-.48,2.35,6.14,6.14,0,0,1-1.26,1.88,5.84,5.84,0,0,1-1.85,1.24,5.65,5.65,0,0,1-2.22.45H188.06Z"/><path class="cls-1" d="M279.58,195.27a12.6,12.6,0,0,1,.29-2.72,6.69,6.69,0,0,1,1-2.32,4.87,4.87,0,0,1,1.79-1.64,5.5,5.5,0,0,1,2.7-.61,6.38,6.38,0,0,1,3.06.77,11.09,11.09,0,0,1,2.75,2.14l24,25V188.51h7.77v30.22a11.53,11.53,0,0,1-.32,2.73,7.22,7.22,0,0,1-1,2.32,5.15,5.15,0,0,1-1.77,1.64,5.46,5.46,0,0,1-2.67.61,6.23,6.23,0,0,1-3.17-.77,12.11,12.11,0,0,1-2.64-2.14l-24-24.94V225.5h-7.77Z"/><path class="cls-1" d="M338.34,194.43a6,6,0,0,1,.45-2.35A5.65,5.65,0,0,1,340,190.2a5.79,5.79,0,0,1,4.12-1.69h33.93V196H346.16v6.82h27.69v7.5H346.16V218h31.92v7.51H344.41A5.91,5.91,0,0,1,342,225a6.29,6.29,0,0,1-1.93-1.27,5.79,5.79,0,0,1-1.3-1.85,5.41,5.41,0,0,1-.47-2.21Z"/><path class="cls-1" d="M410.94,196H392.56v-7.5h44.49V196H418.71V225.5h-7.77Z"/><path class="cls-1" d="M450.52,188.51H459l7.82,30.07h1.9l6.18-21.19,4.55,13.79-2.86,9.09a8.64,8.64,0,0,1-2.56,4.17,7.05,7.05,0,0,1-4.78,1.53h-3.12a6.68,6.68,0,0,1-4.65-1.53,8.56,8.56,0,0,1-2.43-4.23Zm25.47,0h8.46l10.2,30.07h1.79l7.93-30.07h8.4l-9,31.65a8.78,8.78,0,0,1-2.51,4.31,7.22,7.22,0,0,1-4.89,1.5h-2.7a6.21,6.21,0,0,1-4.51-1.56,9.74,9.74,0,0,1-2.46-4.25Z"/><path class="cls-1" d="M526.19,194.43a6,6,0,0,1,.45-2.35,5.65,5.65,0,0,1,1.24-1.88,5.84,5.84,0,0,1,1.85-1.24,5.75,5.75,0,0,1,2.27-.45h32.66A6.09,6.09,0,0,1,567,189a6.41,6.41,0,0,1,1.93,1.27,6,6,0,0,1,1.29,1.85,5.34,5.34,0,0,1,.48,2.22v25.26a6,6,0,0,1-1.75,4.28,5.42,5.42,0,0,1-1.85,1.22,5.92,5.92,0,0,1-2.22.42H532.27a5.92,5.92,0,0,1-2.38-.48,6.41,6.41,0,0,1-1.93-1.27,5.76,5.76,0,0,1-1.29-1.85,5.27,5.27,0,0,1-.48-2.21ZM563,218V196H534v22Z"/><path class="cls-1" d="M586.17,194.43a6,6,0,0,1,.45-2.35,5.5,5.5,0,0,1,1.24-1.88,5.79,5.79,0,0,1,4.12-1.69h31.18a5.94,5.94,0,0,1,2.35.47,6.12,6.12,0,0,1,1.87,1.27,5.84,5.84,0,0,1,1.24,1.85,5.65,5.65,0,0,1,.45,2.22v11.73a5.78,5.78,0,0,1-1.74,4.2,6.25,6.25,0,0,1-1.82,1.22,5.45,5.45,0,0,1-2.2.45h-4.75l10.62,13.58h-9.41l-10.88-13.58H598.21v-7.51h23V196H593.93V225.5h-7.76Z"/><path class="cls-1" d="M644.82,188.51h7.77v15.11H662l11.47-15.11h9.2l-14.11,18.07L685,225.5H674.89l-12.53-14.38h-9.77V225.5h-7.77Z"/></g></g></svg>