<svg id="Layer_1" data-name="Layer 1" xmlns="http://www.w3.org/2000/svg" viewBox="0 0 897.03 253.79">
  <g>
    <path d="M238.5,142.72l22.83-106.9H275.7l22.83,106.9H284.34l-4.9-26.95H257.72l-5.1,27Zm21.15-37.59h17.86l-9-48.29Z" style="fill: #fff"/>
    <path d="M364.68,143.88q-13.49,0-20.54-8.32t-7.9-22.76l13.29-3.61q1.41,23,15.15,23,5.73,0,8.73-3.2t3-9.38a22.74,22.74,0,0,0-.81-6.25A17.34,17.34,0,0,0,373,107.9a39.05,39.05,0,0,0-3.48-4.28q-1.65-1.71-4.67-4.55L346.88,83.15A32.2,32.2,0,0,1,339,72.8a32.08,32.08,0,0,1-2.48-13.31q0-11.61,6.74-18.09t18.41-6.61q12.83-.2,19.21,6.61t7.67,21.05L376,65.93q-.25-3.48-.71-6.19a29.37,29.37,0,0,0-1.48-5.44,14.55,14.55,0,0,0-2.52-4.45,10.25,10.25,0,0,0-3.93-2.71,12.78,12.78,0,0,0-5.67-.81q-11.81.84-11.8,11.74a17.08,17.08,0,0,0,1.61,7.86,24.44,24.44,0,0,0,5.41,6.64L374.93,88.5A55.51,55.51,0,0,1,386.11,102a32.12,32.12,0,0,1,4.16,16.37q0,11.75-7.09,18.6T364.68,143.88Z" style="fill: #fff"/>
    <path d="M429.21,143.88a35.47,35.47,0,0,1-13.7-2.39,20.84,20.84,0,0,1-9.06-7,31.56,31.56,0,0,1-4.9-10.83A60.11,60.11,0,0,1,400,109.19V68.71q0-16.71,6.8-25.31t22.4-8.61q15.54,0,22.37,8.67t6.84,25.25v40.55q0,16.69-6.87,25.66T429.21,143.88Zm-7.25-13a20.17,20.17,0,0,0,14.51,0,9.37,9.37,0,0,0,4.35-4.13,19.69,19.69,0,0,0,2-6.09,52.41,52.41,0,0,0,.55-8.22V65.61a50,50,0,0,0-.55-8.06,18.92,18.92,0,0,0-2-5.93,8.9,8.9,0,0,0-4.35-4,21.68,21.68,0,0,0-14.51,0,8.9,8.9,0,0,0-4.35,4,18.67,18.67,0,0,0-2,5.93,48.85,48.85,0,0,0-.55,8.06v46.81a51.23,51.23,0,0,0,.55,8.22,19.43,19.43,0,0,0,2,6.09A9.37,9.37,0,0,0,422,130.86Z" style="fill: #fff"/>
    <path d="M473.18,142.72V35.82H483.3l30.37,71v-71h12.44v106.9h-9.54l-30.82-73v73.05Z" style="fill: #fff"/>
    <path d="M600.26,143.88a35.43,35.43,0,0,1-13.7-2.39,20.73,20.73,0,0,1-9.06-7,31.19,31.19,0,0,1-4.9-10.83,60.07,60.07,0,0,1-1.55-14.45V68.71q0-16.71,6.8-25.31t22.41-8.61q15.53,0,22.37,8.67t6.83,25.25v40.55q0,16.69-6.86,25.66T600.26,143.88Zm-7.26-13a20.17,20.17,0,0,0,14.51,0,9.37,9.37,0,0,0,4.35-4.13,19.43,19.43,0,0,0,2-6.09,51.23,51.23,0,0,0,.55-8.22V65.61a48.85,48.85,0,0,0-.55-8.06,18.67,18.67,0,0,0-2-5.93,8.9,8.9,0,0,0-4.35-4,21.68,21.68,0,0,0-14.51,0,8.9,8.9,0,0,0-4.35,4,18.92,18.92,0,0,0-2,5.93,50,50,0,0,0-.55,8.06v46.81a52.41,52.41,0,0,0,.55,8.22,19.69,19.69,0,0,0,2,6.09A9.37,9.37,0,0,0,593,130.86Z" style="fill: #fff"/>
    <path d="M644.23,142.72V35.82h41.26V46.53H659.12V82.05h20.44V92.69H659.12v50Z" style="fill: #fff"/>
    <path d="M736.94,142.72V46.85H717.4v-11h53.26v11H751.83v95.87Z" style="fill: #fff"/>
    <path d="M778.84,142.72V35.82h14.9V82H821.2V35.82h14.9v106.9H821.2V92.62H793.74v50.1Z" style="fill: #fff"/>
    <path d="M852.86,142.72V35.82h41.39v11h-26.5V82.18h21.54V92.82H867.75V132h26.82v10.7Z" style="fill: #fff"/>
  </g>
  <g>
    <path d="M240,218.12V167.54h4.79l14.37,33.59V167.54h5.89v50.58h-4.52L246,183.56v34.56Z" style="fill: #fff"/>
    <path d="M273,218.12V167.54h19.58v5.22H280v16.72h10.19v5H280v18.55h12.7v5.06Z" style="fill: #fff"/>
    <path d="M305,218.12l-8.27-50.58h5.92L308,203.9l6.83-36.21h5l6.87,36.37L332,167.54h5.76l-8.11,50.58h-5.13l-7-37.46-7.13,37.46Z" style="fill: #fff"/>
    <path d="M355.45,218.12l10.8-50.58h6.81l10.79,50.58h-6.71l-2.31-12.75H364.54l-2.4,12.75Zm10-17.78h8.45l-4.24-22.85Z" style="fill: #fff"/>
    <path d="M388.83,218.12l.94-50.58h6.9l8.94,41,9-41h6.89l.94,50.58h-5.7l-.55-36.76-8.57,36.76h-4l-8.51-36.76-.55,36.76Z" style="fill: #fff"/>
    <path d="M430.22,218.12V167.54h19.59v5.22H437.27v16.72h10.19v5H437.27v18.55H450v5.06Z" style="fill: #fff"/>
    <path d="M455.67,218.12V167.54h10.15q7.69,0,11.28,3.14t3.58,10.25q0,9.76-6.25,11.81l7.23,25.38h-6.84l-6.65-23.73h-5.46v23.73Zm7-28.8h2.66q4.61,0,6.57-1.81t2-6.58q0-4.6-1.7-6.46t-6.39-1.86h-3.11Z" style="fill: #fff"/>
    <path d="M488.43,218.12V167.54h6.92v50.58Z" style="fill: #fff"/>
    <path d="M516.19,218.67a16.5,16.5,0,0,1-5.52-.85,10.68,10.68,0,0,1-3.89-2.32,11.35,11.35,0,0,1-2.47-3.65,17.84,17.84,0,0,1-1.33-4.59,36.75,36.75,0,0,1-.37-5.4V184a38.77,38.77,0,0,1,.38-5.7,19,19,0,0,1,1.33-4.67,10.62,10.62,0,0,1,2.47-3.57,10.83,10.83,0,0,1,3.89-2.19,17.3,17.3,0,0,1,5.51-.8q6.82,0,9.79,3.7t3,10.85v4h-6.68v-3.57c0-.77,0-1.37,0-1.81s0-1-.06-1.63a9.7,9.7,0,0,0-.16-1.53c-.09-.37-.19-.79-.32-1.28a3.76,3.76,0,0,0-.51-1.15,10.44,10.44,0,0,0-.76-.88,2.86,2.86,0,0,0-1-.7,7.61,7.61,0,0,0-1.37-.38,9.58,9.58,0,0,0-1.77-.15,9.3,9.3,0,0,0-2.56.31,4.22,4.22,0,0,0-1.8,1,6.36,6.36,0,0,0-1.15,1.51,7,7,0,0,0-.65,2.12c-.14.87-.24,1.7-.29,2.5s-.08,1.8-.08,3v20c0,3.8.48,6.45,1.43,7.93s2.66,2.23,5.1,2.23a8.27,8.27,0,0,0,2.42-.31,3.64,3.64,0,0,0,1.68-1,6.81,6.81,0,0,0,1.06-1.47,6.56,6.56,0,0,0,.57-2.06,22,22,0,0,0,.23-2.39c0-.73,0-1.69,0-2.87v-3.72h6.68v3.75a32.44,32.44,0,0,1-.37,5.19,17.1,17.1,0,0,1-1.25,4.28,9.72,9.72,0,0,1-2.31,3.31,10.08,10.08,0,0,1-3.67,2.06A16.1,16.1,0,0,1,516.19,218.67Z" style="fill: #fff"/>
    <path d="M532.91,218.12l10.79-50.58h6.81l10.8,50.58h-6.72l-2.31-12.75H542l-2.41,12.75Zm10-17.78h8.45l-4.24-22.85Z" style="fill: #fff"/>
    <path d="M566.43,218.12V167.54h4.79l14.37,33.59V167.54h5.89v50.58H587l-14.58-34.56v34.56Z" style="fill: #fff"/>
    <path d="M613.68,218.12V167.54h10.16q7.7,0,11.27,3.14t3.59,10.25q0,9.76-6.25,11.81l7.23,25.38h-6.84l-6.65-23.73h-5.46v23.73Zm7.05-28.8h2.66q4.61,0,6.57-1.81t2-6.58q0-4.6-1.7-6.46c-1.12-1.24-3.26-1.86-6.39-1.86h-3.11Z" style="fill: #fff"/>
    <path d="M646.11,218.12V167.54H665.7v5.22H653.16v16.72h10.19v5H653.16v18.55h12.69v5.06Z" style="fill: #fff"/>
    <path d="M680.34,218.12l-11.29-50.58h6.59l8,37.25,7.63-37.25h6.44l-11.2,50.58Z" style="fill: #fff"/>
    <path d="M715.45,218.67a16.81,16.81,0,0,1-6.48-1.13,9.86,9.86,0,0,1-4.29-3.32,14.84,14.84,0,0,1-2.31-5.13,28.22,28.22,0,0,1-.74-6.83V183.1q0-7.9,3.22-12t10.6-4.08q7.35,0,10.59,4.11t3.23,11.94v19.19q0,7.91-3.25,12.14T715.45,218.67ZM712,212.51a9.51,9.51,0,0,0,6.86,0,4.4,4.4,0,0,0,2.06-2,9.06,9.06,0,0,0,1-2.88,23.62,23.62,0,0,0,.26-3.89V181.64a22.64,22.64,0,0,0-.26-3.82,8.76,8.76,0,0,0-1-2.8,4.19,4.19,0,0,0-2.06-1.88,10.27,10.27,0,0,0-6.86,0A4.19,4.19,0,0,0,710,175a8.76,8.76,0,0,0-1,2.8,23.74,23.74,0,0,0-.26,3.82v22.14a24.78,24.78,0,0,0,.26,3.89,9.06,9.06,0,0,0,1,2.88A4.4,4.4,0,0,0,712,212.51Z" style="fill: #fff"/>
    <path d="M736.26,218.12V167.54h7v45.52h12.91v5.06Z" style="fill: #fff"/>
    <path d="M779.7,217.83a19.22,19.22,0,0,1-11.24,0,9.69,9.69,0,0,1-6.29-6,19.94,19.94,0,0,1-1.23-4.82,44.78,44.78,0,0,1-.34-5.93V167.54h6.71V201.4q0,2.17.12,3.75a17.76,17.76,0,0,0,.55,3.19,7.73,7.73,0,0,0,1.15,2.58,5.23,5.23,0,0,0,2,1.6,6.6,6.6,0,0,0,3,.63,6.52,6.52,0,0,0,3-.63,5.28,5.28,0,0,0,2-1.61,7.81,7.81,0,0,0,1.14-2.58,16.81,16.81,0,0,0,.55-3.18c.08-1.05.13-2.3.13-3.75V167.54h6.71v33.53a46.55,46.55,0,0,1-.34,5.93,20,20,0,0,1-1.24,4.82,10.17,10.17,0,0,1-2.39,3.72A10.5,10.5,0,0,1,779.7,217.83Z" style="fill: #fff"/>
    <path d="M800.2,218.12V172.76H791v-5.22h25.2v5.22h-8.91v45.36Z" style="fill: #fff"/>
    <path d="M820.36,218.12V167.54h6.93v50.58Z" style="fill: #fff"/>
    <path d="M848.36,218.67a16.81,16.81,0,0,1-6.48-1.13,9.77,9.77,0,0,1-4.28-3.32,14.86,14.86,0,0,1-2.32-5.13,28.26,28.26,0,0,1-.73-6.83V183.1q0-7.9,3.21-12t10.6-4.08c4.91,0,8.43,1.37,10.59,4.11s3.23,6.71,3.23,11.94v19.19q0,7.91-3.25,12.14T848.36,218.67Zm-3.43-6.16a9.54,9.54,0,0,0,6.87,0,4.38,4.38,0,0,0,2.05-2,9.32,9.32,0,0,0,1-2.88,24.93,24.93,0,0,0,.25-3.89V181.64a23.88,23.88,0,0,0-.25-3.82,9,9,0,0,0-1-2.8,4.17,4.17,0,0,0-2.05-1.88,10.29,10.29,0,0,0-6.87,0,4.24,4.24,0,0,0-2.06,1.88,8.76,8.76,0,0,0-1,2.8,23.74,23.74,0,0,0-.26,3.82v22.14a24.78,24.78,0,0,0,.26,3.89,9.06,9.06,0,0,0,1,2.88A4.45,4.45,0,0,0,844.93,212.51Z" style="fill: #fff"/>
    <path d="M869.17,218.12V167.54H874l14.37,33.59V167.54h5.88v50.58H889.7l-14.58-34.56v34.56Z" style="fill: #fff"/>
  </g>
  <g>
    <path d="M133.65,111v17.53l.23,0V110.81Z" style="fill: none"/>
    <path d="M149.53,101.1V127l.23,0V101Z" style="fill: none"/>
    <polygon points="117.94 119.37 117.94 122.29 112.36 122.29 112.36 122.29 117.77 122.29 117.77 124.37 118 124.46 118 119.33 117.94 119.37" style="fill: none"/>
    <path d="M165.4,92.49v30.3l.23-.09V92.39Z" style="fill: none"/>
    <polygon points="22.52 139.77 22.75 139.67 22.75 133.92 22.52 133.66 22.52 139.77" style="fill: none"/>
    <path d="M181.28,102.13c.08-.36.16-.72.23-1.09V89.82a1.84,1.84,0,0,0-.23-.25Z" style="fill: none"/>
    <path d="M54.27,126.34V157l.23-.12V126.39Z" style="fill: #010101"/>
    <path d="M112.36,122.29H101.9v55.28a3.26,3.26,0,0,1,.23-.55V122.29Z" style="fill: #010101"/>
    <path d="M117.77,124.37v51.09c.08-.86.16-1.54.24-2v-49Z" style="fill: #010101"/>
    <path d="M118,119.33V.85h-.08V119.37Z" style="fill: #010101"/>
    <path d="M149.76,101V12l-.23-.11v89.2Z" style="fill: #010101"/>
    <path d="M38.39,122.4v46.9l.23.11V122.47Z" style="fill: #010101"/>
    <path d="M86.22,124.54h0l-.2.08v52a2.61,2.61,0,0,1,.23.82V124.52Z" style="fill: #010101"/>
    <path d="M70.14,128.58v53.18c.08.51.16,1.06.24,1.64V128.57Z" style="fill: #010101"/>
    <path d="M22.52,139.77v29.47a2.73,2.73,0,0,0,.23.25V139.67Z" style="fill: #010101"/>
    <polygon points="22.52 133.66 22.75 133.92 22.75 122.29 30.67 122.29 30.67 122.29 14.09 122.29 14.09 122.29 22.52 122.29 22.52 133.66" style="fill: #010101"/>
    <path d="M149.53,127v27.39l.23-.08V126.93Z" style="fill: #010101"/>
    <path d="M165.63,92.39V22.08l-.23-.18V92.49Z" style="fill: #010101"/>
    <path d="M181.51,89.82V37.4l-.23-.28V89.57A1.84,1.84,0,0,1,181.51,89.82Z" style="fill: #010101"/>
    <path d="M165.4,122.79v47.83l.23.12v-48Z" style="fill: #010101"/>
    <path d="M133.88,110.81V5.17l-.23-.08V111Z" style="fill: #010101"/>
    <path d="M181.28,102.13v61.4l.23-.25V101C181.44,101.41,181.36,101.77,181.28,102.13Z" style="fill: #010101"/>
    <path d="M133.65,128.48V230.24c.08-.87.16-1.76.23-2.67V128.5Z" style="fill: #010101"/>
    <path d="M65.11,128.38c-.85-.12-1.78-.27-2.76-.44-2.44-.41-5.22-1-8.08-1.55v30.49a40.31,40.31,0,0,1,8.08-3.3,6.54,6.54,0,0,1,1.5-.21c3.88,0,4.48.7,4.35,5.12-.08,2.81.34,5.59.93,6.17s.39,2.28-.43,3.79c-.92,1.67-.62,5.41.75,9.54a25,25,0,0,1,.81,3.77V128.58A27,27,0,0,1,65.11,128.38Z" style="fill: #fff"/>
    <path d="M38,122.29l.36.11v-.11Z" style="fill: #fff"/>
    <path d="M38,122.29H22.75v11.63l3.6,4.11-3.6,1.64v29.82c2.23,2.26,4.82,2.74,7.92,1.49q.64-.27,1.32-.63c2.9-1.54,4.5-1.87,6.4-1V122.4Z" style="fill: #fff"/>
    <path d="M22.52,133.66V122.29H14.09a50.57,50.57,0,0,0,7.05,9.8Z" style="fill: #b22335"/>
    <path d="M22,140c-3.62,1.65-4.43,3.22-4.6,8.94-.26,9,.08,11.19,2.47,16.13a17.23,17.23,0,0,0,2.69,4.14V139.77Z" style="fill: #b22335"/>
    <path d="M38.62,122.47v46.94a9.36,9.36,0,0,1,1.1.6c4.54,2.84,10.11,2.56,10.11-.51,0-1.41-1.51-2.55-3.4-2.55s-3.4-.68-3.4-1.52c0-1.56,5.66-5.48,11.24-8.43V126.34C48.6,125.12,42.65,123.65,38.62,122.47Z" style="fill: #b22335"/>
    <path d="M70.38,128.57V183.4c.88,6.68,1.62,17.87,1.94,30.3.43,16.6,1.57,30.43,2.66,32.47,1.89,3.53,7.73,6.19,9.56,4.37.52-.53,1.56-17.45,1.19-37.6-.4-22.46-.32-35.09.18-36.32,0-.09.07-.1.11,0v-52A48.54,48.54,0,0,1,70.38,128.57Z" style="fill: #b22335"/>
    <path d="M112.22,122.36l.14-.07H102.13V177a.86.86,0,0,1,1.19-.49c2.15.83,2.54,6.78,2.54,39.12v38.14l3.8-.54c5.39-.77,6.49-8.07,7-46.78.19-13.7.64-25.77,1.1-31V124.37Zm1.7,31.46c-1.87,2.46-2.48,2-5.2-3.86-1.7-3.67-2.84-9.17-2.55-12.24l.54-5.58,4.67,6.77c2.57,3.72,4.67,8,4.67,9.43A10.94,10.94,0,0,1,113.92,153.82Z" style="fill: #b22335"/>
    <path d="M147.18,102.77q1.26-.85,2.58-1.68V11.82a125.9,125.9,0,0,0-16.11-6.73V110.81C139,107.84,144.22,104.76,147.18,102.77Z" style="fill: #b22335"/>
    <path d="M133.88,128.5v99.07c.51-6.26.85-13.35.85-18.82,0-11.49.94-18.52,3.46-25.82a88,88,0,0,0,4.07-17.52c.49-6,2.68-9.52,7.27-11V127C143.05,128.29,138.32,128.8,133.88,128.5Z" style="fill: #b22335"/>
    <path d="M172.08,119.62a29.83,29.83,0,0,1-6.45,3.08v48a3.35,3.35,0,0,0,.47.21c4.05,1.55,10.37-2.29,15.18-7.42v-61.4C179.62,109.41,175.9,116.83,172.08,119.62Z" style="fill: #b22335"/>
    <path d="M177.6,88.86c1.88,0,3,.09,3.68.71V37.12a93.68,93.68,0,0,0-15.65-15V92.39C170.63,90.22,175,88.87,177.6,88.86Z" style="fill: #b22335"/>
    <path d="M191.24,52.88c-.63-1.31-1.3-2.6-2-3.88a78.72,78.72,0,0,0-7.94-11.6V89.82c.64.86.72,2.45.67,5.39a31,31,0,0,1-.67,5.83v62.24c4.85-5.19,8.08-11.62,5.82-15.14s-2-9,2.12-26.26c.51-2.13,1.07-4.44,1.69-7,3.73-15,5.48-26.34,5.6-36.26C196.66,65.79,196.09,63,191.24,52.88Z" style="fill: #fff"/>
    <path d="M94.14,122.29H91.56l-5.31,2.23V177.4c.33,1.72.72,5.72,1,9.08,1.64,22.32,1.49,44.7,1.63,67.07h11.89v-39c0-24.75.17-34.07,1.13-37V122.29Zm3.59,22.94c-1.58,4.16-2.69,6.77-3.59,8.08-1.36,2-2.29,1-3.72-2.15-1.68-3.69-1.44-5,1.64-8.94a28.21,28.21,0,0,0,2.08-3,9.74,9.74,0,0,0,1.53-3.67c0-1.16,1.15-3.06,2.55-4.23,2.14-1.77,2.55-1.47,2.54,1.92C100.76,135.43,99.4,140.83,97.73,145.23Z" style="fill: #fff"/>
    <path d="M157.65,125.16l-.05,0c-2.89.69-5.48,1.27-7.84,1.75v27.36a22.64,22.64,0,0,1,6.41-.86c.5,0,1,0,1.43,0,5.92.39,8.07,3.77,6.8,10.57-.75,4-.54,5.67,1,6.58V122.79A68.68,68.68,0,0,1,157.65,125.16Z" style="fill: #fff"/>
    <path d="M157.72,16.51c-2.57-1.58-5.22-3.09-8-4.5V101c2.58-1.65,5.28-3.21,8-4.64s5.38-2.73,7.91-3.82V21.9Q161.85,19.07,157.72,16.51Z" style="fill: #fff"/>
    <path d="M132.86,4.81c-2.63-.89-4.9-1.63-7-2.23A60.28,60.28,0,0,0,118,.85V119.33l7.58-4,.28-.14c2.44-1.29,5.13-2.77,7.78-4.27V5.09Z" style="fill: #fff"/>
    <path d="M125.87,127.07c-2-.53-4.09-1.2-6.4-2l-1.7-.59v49a1.85,1.85,0,0,1,.21-.73c.62-.6,2.45-.6,4.06,0,2.72,1,2.73,1.31.08,4.16-2.47,2.64-2.86,8.18-2.86,39.87,0,20.23.27,36.79.61,36.79a57.7,57.7,0,0,0,5.92-1.8l.08,0c4.92-1.67,5.35-2.59,7.17-14.48.3-1.95.59-4.36.84-7V128.48A41.63,41.63,0,0,1,125.87,127.07Z" style="fill: #fff"/>
    <path d="M34.14,120.89a11.19,11.19,0,0,1-3.47-3.41v4.81H38A26.2,26.2,0,0,1,34.14,120.89Z" style="fill: #3d3c6f"/>
    <path d="M99.07,0c-1.71,0-3.34,0-4.93.07C90.1.18,86.41.42,83,.81l2.41,3.28,4.39-1.4L87,6.36,89.75,10l-4.39-1.4-2.71,3.68V7.77L78.27,6.36,82.65,5V.84a74.59,74.59,0,0,0-16.5,3.73L64.83,6.36,67.54,10l-4.39-1.4-.75,1-2,2.67V7.77L59.3,7.4a108.25,108.25,0,0,0-12.49,7.09A115.71,115.71,0,0,0,30.67,27.73C28,30.31,25.38,33,23,35.62l.14.18-.24-.07c-6.21,6.81-11,13.35-12.2,17.16C7.69,62.76,6.72,92.18,9,105c1.33,7.64,2.73,12.69,5.13,17.26H30.67v-4.81c-3.63-5.07-6.84-14.11-7.75-20.89l-.18-.06.16,0c-.55-4.15-.23-7.44,1.38-8.44.58-.36,2.62.2,6.39,1.79,4.08,1.73,10.2,4.67,18.67,9v-.88L45,96.53l4.39-1.41V90.58l2.71,3.68,4.38-1.41-2.71,3.68,2.71,3.68L52.05,98.8l-.75,1q4.2,2.15,9.14,4.73v-1.09l1.31,1.78c.22.11.44.22.65.34l2.13,1.11,3-1-1.35,1.83,7.3,3.86,19.41,10.3-1.34.57h20.8l5.57-2.92V.84C113.12.13,107.76,0,99.07,0ZM93.76,17.84V13.29l.38.51L96.47,17l4.39-1.4-2.71,3.68,2.71,3.67-4.39-1.4-2.33,3.17-.38.51V20.65l-4.38-1.4Zm7.1,30.84-4.39-1.4-2.33,3.17-.38.51V46.41L89.38,45l4.38-1.41V39.06l.38.5,2.33,3.17,4.39-1.4L98.15,45Zm0,25.77L96.47,73l-2.33,3.17-.38.51V72.17l-4.38-1.4,4.38-1.41V64.82l.38.5,2.33,3.17,4.39-1.4-2.71,3.68ZM89.75,87.33l-4.39-1.41L82.65,89.6V85.05l-4.38-1.4,4.38-1.41V77.7l2.71,3.67L89.75,80,87,83.65ZM67.16,70.77l4.39-1.41V64.82l2.71,3.67,4.38-1.4-2.71,3.68,2.71,3.68L74.26,73l-2.71,3.68V72.17ZM56.06,57.89l4.38-1.41V51.94l2,2.66.75,1,4.39-1.4-2.71,3.68,2.71,3.68-4.39-1.41-.75,1-2,2.66V59.29ZM45,45l4.39-1.41V39.06l2.71,3.67,4.38-1.4L53.72,45l2.71,3.67-4.38-1.4L49.34,51V46.41Zm.37,16.56-4.38-1.41-2.71,3.68V59.29l-4.39-1.4,4.39-1.41V51.94l2.71,3.67,4.38-1.4-2.71,3.68Zm44.43,0-4.39-1.41-2.71,3.68V59.29l-4.38-1.4,4.38-1.41V51.94l2.71,3.67,4.39-1.4L87,57.89ZM78.64,48.68l-4.38-1.4L71.55,51V46.41L67.16,45l4.39-1.41V39.06l2.71,3.67,4.38-1.4L75.93,45Zm4-22.51,2.71,3.68,4.39-1.4L87,32.13l2.71,3.67-4.39-1.4-2.71,3.68V33.53l-4.38-1.4,4.38-1.41Zm-11.1-8.33V13.29L74.26,17l4.38-1.4-2.71,3.68,2.71,3.67-4.38-1.4L71.55,25.2V20.65l-4.39-1.4ZM60.44,30.72V26.17l2,2.67.75,1,4.39-1.4-2.71,3.68,2.71,3.67-4.39-1.4-.75,1-2,2.66V33.53l-4.38-1.4ZM49.34,17.84V13.29L52.05,17l4.38-1.4-2.71,3.68,2.71,3.67-4.38-1.4L49.34,25.2V20.65L45,19.25ZM38.23,30.72V26.17l2.71,3.68,4.38-1.4-2.71,3.68,2.71,3.67-4.38-1.4-2.71,3.68V33.53l-4.39-1.4ZM27.12,43.6V39.06l2.71,3.67.84-.27,3.55-1.13L31.51,45l2.71,3.67-3.55-1.13-.84-.27L27.12,51V46.41L22.74,45ZM16,56.48V51.94l2.71,3.67,4.38-1.4L20.4,57.89l2.71,3.68-4.38-1.41L16,63.84V59.29l-4.39-1.4Zm7.09,49.25-2.71,3.68,2.71,3.68-4.38-1.41L16,115.36v-4.55l-4.39-1.4L16,108v-4.54l2.71,3.68Zm0-18.4-4.38-1.41L16,89.6V85.05l-4.39-1.4L16,82.24V77.7l2.71,3.67L23.11,80,20.4,83.65ZM29.83,73l-2.71,3.68V72.17l-4.38-1.4,4.38-1.41V64.82l2.71,3.67.84-.26,3.55-1.14-2.71,3.68,2.71,3.68-3.55-1.14ZM45.32,87.33l-4.38-1.41L38.23,89.6V85.05l-4.39-1.4,4.39-1.41V77.7l2.71,3.67L45.32,80l-2.71,3.68Zm4-10.61V72.17L45,70.77l4.39-1.41V64.82l2.71,3.67,4.38-1.4-2.71,3.68,2.71,3.68L52.05,73Zm13.81,9.2-.75,1-2,2.66V85.05l-4.38-1.4,4.38-1.41V77.7l2,2.66.75,1L67.54,80l-2.71,3.68,2.71,3.68Zm8.4,16.56V97.93l-4.39-1.4,4.39-1.41V90.58l2.71,3.68,4.38-1.41-2.71,3.68,2.71,3.68L74.26,98.8Zm18.2,10.61-4.39-1.41-2.71,3.68v-4.55l-4.38-1.4L82.65,108v-4.54l2.71,3.68,4.39-1.41L87,109.41ZM94.14,102l-.38.51V97.93l-4.38-1.4,4.38-1.41V90.58l.38.51,2.33,3.17,4.39-1.41-2.71,3.68,2.71,3.68L96.47,98.8ZM112,113.09l-4.38-1.41-2.71,3.68v-4.55l-4.39-1.4,4.39-1.41v-4.54l2.71,3.68,4.38-1.41-2.71,3.68Zm0-25.76-4.38-1.41-2.71,3.68V85.05l-4.39-1.4,4.39-1.41V77.7l2.71,3.67L112,80l-2.71,3.68Zm0-25.76-4.38-1.41-2.71,3.68V59.29l-4.39-1.4,4.39-1.41V51.94l2.71,3.67,4.38-1.4-2.71,3.68Zm0-25.77-4.38-1.4-2.71,3.68V33.53l-4.39-1.4,4.39-1.41V26.17l2.71,3.68,4.38-1.4-2.71,3.68ZM112,10l-4.38-1.4-2.71,3.68V7.77l-4.39-1.41L104.87,5V.41l2.71,3.68L112,2.69l-2.71,3.67Z" style="fill: #3d3c6f"/>
    <path d="M64.83,6.36l1.32-1.79c-.69.24-1.38.5-2.08.77L62.4,6l-2,.85L59.3,7.4l1.14.37v4.55l2-2.67.75-1L67.54,10Z" style="fill: #fff"/>
    <path d="M89.75,2.69l-4.39,1.4L83,.81l-.3,0V5l-4.38,1.4,4.38,1.41v4.55l2.71-3.68L89.75,10,87,6.36Z" style="fill: #fff"/>
    <polygon points="111.96 2.69 107.58 4.09 104.87 0.41 104.87 4.96 100.48 6.37 104.87 7.77 104.87 12.32 107.58 8.64 111.96 10.04 109.25 6.37 111.96 2.69" style="fill: #fff"/>
    <polygon points="56.43 15.57 52.05 16.97 49.34 13.29 49.34 17.84 44.95 19.25 49.34 20.65 49.34 25.2 52.05 21.52 56.43 22.92 53.72 19.25 56.43 15.57" style="fill: #fff"/>
    <polygon points="78.64 15.57 74.26 16.97 71.55 13.29 71.55 17.84 67.16 19.25 71.55 20.65 71.55 25.2 74.26 21.52 78.64 22.92 75.93 19.25 78.64 15.57" style="fill: #fff"/>
    <polygon points="100.86 15.57 96.47 16.97 94.14 13.8 93.76 13.29 93.76 17.84 89.38 19.25 93.76 20.65 93.76 25.2 94.14 24.69 96.47 21.52 100.86 22.92 98.15 19.25 100.86 15.57" style="fill: #fff"/>
    <path d="M23.11,35.8,23,35.62l-.1.11Z" style="fill: #fff"/>
    <polygon points="45.32 28.45 40.94 29.85 38.23 26.17 38.23 30.72 33.84 32.13 38.23 33.53 38.23 38.08 40.94 34.4 45.32 35.8 42.61 32.13 45.32 28.45" style="fill: #fff"/>
    <polygon points="67.54 28.45 63.15 29.85 64.83 32.13 67.54 28.45" style="fill: #fff"/>
    <polygon points="63.15 29.85 62.4 28.84 62.4 30.09 63.15 29.85" style="fill: #fff"/>
    <polygon points="60.44 30.72 62.4 30.09 62.4 28.84 60.44 26.17 60.44 30.72" style="fill: #fff"/>
    <polygon points="62.4 34.16 63.15 34.4 64.83 32.13 63.15 29.85 62.4 30.09 62.4 34.16" style="fill: #fff"/>
    <polygon points="62.4 30.09 60.44 30.72 60.44 33.53 62.4 34.16 62.4 30.09" style="fill: #fff"/>
    <polygon points="67.54 35.8 64.83 32.13 63.15 34.4 67.54 35.8" style="fill: #fff"/>
    <polygon points="60.44 33.53 60.44 38.08 62.4 35.42 62.4 34.16 60.44 33.53" style="fill: #fff"/>
    <polygon points="62.4 35.42 63.15 34.4 62.4 34.16 62.4 35.42" style="fill: #fff"/>
    <polygon points="56.06 32.13 60.44 33.53 60.44 30.72 56.06 32.13" style="fill: #fff"/>
    <polygon points="89.75 28.45 85.36 29.85 82.65 26.17 82.65 30.72 78.27 32.13 82.65 33.53 82.65 38.08 85.36 34.4 89.75 35.8 87.04 32.13 89.75 28.45" style="fill: #fff"/>
    <polygon points="111.96 28.45 107.58 29.85 104.87 26.17 104.87 30.72 100.48 32.13 104.87 33.53 104.87 38.08 107.58 34.4 111.96 35.8 109.25 32.13 111.96 28.45" style="fill: #fff"/>
    <polygon points="22.74 45.01 27.12 46.41 27.12 43.6 22.74 45.01" style="fill: #fff"/>
    <polygon points="27.12 50.96 29.83 47.28 27.12 46.41 27.12 50.96" style="fill: #fff"/>
    <polygon points="31.51 45.01 30.67 46.14 30.67 47.55 34.22 48.69 31.51 45.01" style="fill: #fff"/>
    <polygon points="29.83 47.28 30.67 47.55 30.67 46.14 29.83 47.28" style="fill: #fff"/>
    <polygon points="27.12 39.05 27.12 43.6 29.83 42.73 27.12 39.05" style="fill: #fff"/>
    <polygon points="30.67 42.47 29.83 42.73 30.67 43.87 30.67 42.47" style="fill: #fff"/>
    <polygon points="31.51 45.01 34.22 41.33 30.67 42.47 30.67 43.87 31.51 45.01" style="fill: #fff"/>
    <polygon points="30.67 43.87 29.83 42.73 27.12 43.6 27.12 46.41 29.83 47.28 30.67 46.14 30.67 43.87" style="fill: #fff"/>
    <polygon points="30.67 46.14 31.51 45.01 30.67 43.87 30.67 46.14" style="fill: #fff"/>
    <polygon points="53.72 45.01 56.43 41.33 52.05 42.73 53.72 45.01" style="fill: #fff"/>
    <polygon points="49.34 43.6 49.34 46.41 52.05 47.28 53.72 45.01 52.05 42.73 49.34 43.6" style="fill: #fff"/>
    <polygon points="49.34 50.96 52.05 47.28 49.34 46.41 49.34 50.96" style="fill: #fff"/>
    <polygon points="49.34 39.05 49.34 43.6 52.05 42.73 49.34 39.05" style="fill: #fff"/>
    <polygon points="44.95 45.01 49.34 46.41 49.34 43.6 44.95 45.01" style="fill: #fff"/>
    <polygon points="56.43 48.69 53.72 45.01 52.05 47.28 56.43 48.69" style="fill: #fff"/>
    <polygon points="71.55 43.6 67.16 45.01 71.55 46.41 71.55 43.6" style="fill: #fff"/>
    <polygon points="71.55 39.05 71.55 43.6 74.26 42.73 71.55 39.05" style="fill: #fff"/>
    <polygon points="74.26 47.28 75.93 45.01 74.26 42.73 71.55 43.6 71.55 46.41 74.26 47.28" style="fill: #fff"/>
    <polygon points="71.55 50.96 74.26 47.28 71.55 46.41 71.55 50.96" style="fill: #fff"/>
    <polygon points="78.64 48.69 75.93 45.01 74.26 47.28 78.64 48.69" style="fill: #fff"/>
    <polygon points="78.64 41.33 74.26 42.73 75.93 45.01 78.64 41.33" style="fill: #fff"/>
    <polygon points="100.86 41.33 96.47 42.73 94.14 39.56 93.76 39.05 93.76 43.6 89.38 45.01 93.76 46.41 93.76 50.96 94.14 50.45 96.47 47.28 100.86 48.69 98.15 45.01 100.86 41.33" style="fill: #fff"/>
    <polygon points="23.11 54.21 18.73 55.61 16.02 51.94 16.02 56.48 11.63 57.89 16.02 59.29 16.02 63.84 18.73 60.16 23.11 61.56 20.4 57.89 23.11 54.21" style="fill: #fff"/>
    <polygon points="38.23 63.84 40.94 60.16 38.23 59.29 38.23 63.84" style="fill: #fff"/>
    <polygon points="45.32 54.21 40.94 55.61 42.61 57.89 45.32 54.21" style="fill: #fff"/>
    <polygon points="38.23 56.48 33.84 57.89 38.23 59.29 38.23 56.48" style="fill: #fff"/>
    <polygon points="45.32 61.56 42.61 57.89 40.94 60.16 45.32 61.56" style="fill: #fff"/>
    <polygon points="38.23 51.94 38.23 56.48 40.94 55.61 38.23 51.94" style="fill: #fff"/>
    <polygon points="40.94 60.16 42.61 57.89 40.94 55.61 38.23 56.48 38.23 59.29 40.94 60.16" style="fill: #fff"/>
    <polygon points="60.44 59.29 60.44 63.84 62.4 61.18 62.4 59.92 60.44 59.29" style="fill: #fff"/>
    <polygon points="62.4 61.18 63.15 60.16 62.4 59.92 62.4 61.18" style="fill: #fff"/>
    <polygon points="67.54 61.56 64.83 57.89 63.15 60.16 67.54 61.56" style="fill: #fff"/>
    <polygon points="62.4 59.92 63.15 60.16 64.83 57.89 63.15 55.61 62.4 55.85 62.4 59.92" style="fill: #fff"/>
    <polygon points="62.4 55.85 60.44 56.48 60.44 59.29 62.4 59.92 62.4 55.85" style="fill: #fff"/>
    <polygon points="56.06 57.89 60.44 59.29 60.44 56.48 56.06 57.89" style="fill: #fff"/>
    <polygon points="67.54 54.21 63.15 55.61 64.83 57.89 67.54 54.21" style="fill: #fff"/>
    <polygon points="63.15 55.61 62.4 54.6 62.4 55.85 63.15 55.61" style="fill: #fff"/>
    <polygon points="60.44 56.48 62.4 55.85 62.4 54.6 60.44 51.94 60.44 56.48" style="fill: #fff"/>
    <polygon points="89.75 54.21 85.36 55.61 82.65 51.94 82.65 56.48 78.27 57.89 82.65 59.29 82.65 63.84 85.36 60.16 89.75 61.56 87.04 57.89 89.75 54.21" style="fill: #fff"/>
    <polygon points="111.96 54.21 107.58 55.61 104.87 51.94 104.87 56.48 100.48 57.89 104.87 59.29 104.87 63.84 107.58 60.16 111.96 61.56 109.25 57.89 111.96 54.21" style="fill: #fff"/>
    <polygon points="34.22 67.09 30.67 68.23 29.83 68.49 27.12 64.82 27.12 69.36 22.74 70.77 27.12 72.17 27.12 76.72 29.83 73.04 30.67 73.31 34.22 74.45 31.51 70.77 34.22 67.09" style="fill: #fff"/>
    <polygon points="56.43 67.09 52.05 68.49 49.34 64.82 49.34 69.36 44.95 70.77 49.34 72.17 49.34 76.72 52.05 73.04 56.43 74.45 53.72 70.77 56.43 67.09" style="fill: #fff"/>
    <polygon points="78.64 67.09 74.26 68.49 71.55 64.82 71.55 69.36 67.16 70.77 71.55 72.17 71.55 76.72 74.26 73.04 78.64 74.45 75.93 70.77 78.64 67.09" style="fill: #fff"/>
    <polygon points="100.86 67.09 96.47 68.49 94.14 65.32 93.76 64.82 93.76 69.36 89.38 70.77 93.76 72.17 93.76 76.72 94.14 76.21 96.47 73.04 100.86 74.45 98.15 70.77 100.86 67.09" style="fill: #fff"/>
    <polygon points="23.11 79.97 18.73 81.38 16.02 77.7 16.02 82.24 11.63 83.65 16.02 85.05 16.02 89.6 18.73 85.92 23.11 87.33 20.4 83.65 23.11 79.97" style="fill: #fff"/>
    <polygon points="45.32 79.97 40.94 81.38 38.23 77.7 38.23 82.24 33.84 83.65 38.23 85.05 38.23 89.6 40.94 85.92 45.32 87.33 42.61 83.65 45.32 79.97" style="fill: #fff"/>
    <polygon points="67.54 79.97 63.15 81.38 62.4 81.61 63.15 81.38 62.4 80.36 60.44 77.7 60.44 82.24 56.06 83.65 60.44 85.05 60.44 89.6 62.4 86.94 63.15 85.92 67.54 87.33 64.83 83.65 67.54 79.97" style="fill: #fff"/>
    <polygon points="89.75 79.97 85.36 81.38 82.65 77.7 82.65 82.24 78.27 83.65 82.65 85.05 82.65 89.6 85.36 85.92 89.75 87.33 87.04 83.65 89.75 79.97" style="fill: #fff"/>
    <polygon points="111.96 79.97 107.58 81.38 104.87 77.7 104.87 82.24 100.48 83.65 104.87 85.05 104.87 89.6 107.58 85.92 111.96 87.33 109.25 83.65 111.96 79.97" style="fill: #fff"/>
    <path d="M22.74,96.53l.18.06,0-.11Z" style="fill: #fff"/>
    <path d="M56.43,92.85l-4.38,1.41-2.71-3.68v4.54L45,96.53l4.39,1.4v.88l2,1,.75-1,4.38,1.41-2.71-3.68Z" style="fill: #fff"/>
    <polygon points="78.64 92.85 74.26 94.25 71.55 90.58 71.55 95.12 67.16 96.53 71.55 97.93 71.55 102.48 74.26 98.8 78.64 100.21 75.93 96.53 78.64 92.85" style="fill: #fff"/>
    <polygon points="100.86 92.85 96.47 94.25 94.14 91.08 93.76 90.58 93.76 95.12 89.38 96.53 93.76 97.93 93.76 102.48 94.14 101.97 96.47 98.8 100.86 100.21 98.15 96.53 100.86 92.85" style="fill: #fff"/>
    <polygon points="23.11 105.73 18.73 107.14 16.02 103.46 16.02 108 11.63 109.41 16.02 110.81 16.02 115.36 18.73 111.68 23.11 113.09 20.4 109.41 23.11 105.73" style="fill: #fff"/>
    <path d="M67.54,105.73l-3,1,1.66.87Z" style="fill: #fff"/>
    <path d="M60.44,103.46v1.09l1.31.69Z" style="fill: #fff"/>
    <polygon points="89.75 105.73 85.36 107.14 82.65 103.46 82.65 108 78.27 109.41 82.65 110.81 82.65 115.36 85.36 111.68 89.75 113.09 87.04 109.41 89.75 105.73" style="fill: #fff"/>
    <polygon points="109.26 109.42 111.96 105.76 107.58 107.16 104.87 103.48 104.87 108.03 100.48 109.44 104.87 110.84 104.87 115.39 107.58 111.71 107.59 111.69 111.96 113.09 109.26 109.42" style="fill: #fff"/>
  </g>
</svg>
