<svg width="288" height="100" viewBox="0 0 288 100" fill="none" xmlns="http://www.w3.org/2000/svg">
<g clip-path="url(#clip0_1491_27406)">
<path d="M259.575 94.0172C259.141 94.0172 258.722 94.1662 258.387 94.4388C258.052 94.7114 257.823 95.0907 257.738 95.5121C257.654 95.9335 257.72 96.3708 257.924 96.7496C258.129 97.1283 258.459 97.425 258.86 97.5891C259.26 97.7532 259.706 97.7744 260.12 97.6493C260.535 97.5241 260.892 97.2603 261.133 96.9028C261.373 96.5453 261.481 96.1162 261.437 95.6887C261.394 95.2612 261.203 94.8618 260.896 94.5586C260.724 94.3852 260.518 94.248 260.291 94.155C260.064 94.062 259.82 94.0151 259.575 94.0172Z" fill="#818A91"/>
<path d="M272.455 96.1647C272.129 96.4769 271.744 96.7212 271.321 96.883C270.899 97.0448 270.448 97.1208 269.995 97.1065C269.407 97.1093 268.825 96.9892 268.286 96.754C267.748 96.5188 267.266 96.1738 266.871 95.7415C266.275 95.1125 265.816 94.3693 265.522 93.5576C265.195 92.7029 265.027 91.7965 265.026 90.8823C265.036 89.845 265.219 88.8165 265.568 87.8385C265.765 87.2422 266.044 86.6757 266.398 86.1551C266.707 85.7144 267.098 85.3361 267.55 85.0404C268.047 84.7085 268.634 84.5326 269.234 84.5354C269.653 84.5232 270.065 84.6461 270.408 84.8857C270.565 85.0014 270.695 85.1487 270.789 85.3179C270.927 85.6122 271.042 85.9164 271.133 86.2279C271.454 87.2016 271.952 87.6884 272.625 87.6884C272.772 87.6897 272.918 87.661 273.054 87.6038C273.19 87.5467 273.312 87.4624 273.414 87.3563C273.521 87.2475 273.605 87.1186 273.661 86.9772C273.717 86.8357 273.743 86.6846 273.74 86.5327C273.727 86.2608 273.651 85.9956 273.516 85.7584C273.381 85.5213 273.192 85.319 272.964 85.1678C272.115 84.499 270.945 84.1668 269.445 84.1668C268.416 84.1572 267.396 84.3505 266.444 84.7356C265.554 85.1004 264.761 85.664 264.127 86.3826C263.546 87.0512 263.099 87.8233 262.81 88.6575C262.501 89.516 262.346 90.4213 262.351 91.3328C262.295 93.0282 262.921 94.6762 264.09 95.9144C265.277 97.1429 266.915 97.7586 269.004 97.7616C270.076 97.8192 271.143 97.5679 272.074 97.0382C272.882 96.4661 273.467 95.6355 273.73 94.686L273.423 94.5768C273.208 95.1637 272.879 95.7032 272.455 96.1647Z" fill="#818A91"/>
<path d="M286.137 86.5462C285.454 85.7996 284.62 85.2031 283.69 84.7949C282.76 84.3867 281.754 84.1758 280.737 84.1758C279.72 84.1758 278.714 84.3867 277.784 84.7949C276.854 85.2031 276.02 85.7996 275.336 86.5462C274.745 87.1294 274.275 87.8227 273.955 88.5863C273.634 89.3499 273.469 90.1688 273.469 90.9959C273.468 91.796 273.624 92.5887 273.928 93.33C274.233 94.0903 274.676 94.7888 275.235 95.391C275.939 96.1418 276.791 96.7406 277.738 97.1501C278.686 97.5596 279.708 97.7709 280.741 97.7709C281.775 97.7709 282.797 97.5596 283.745 97.1501C284.692 96.7406 285.544 96.1418 286.247 95.391C287.398 94.1972 288.032 92.6047 288.014 90.9537C287.996 89.3027 287.327 87.7241 286.151 86.5553L286.137 86.5462ZM284.807 93.5028C284.603 94.2718 284.273 95.002 283.829 95.664C283.474 96.1901 283.003 96.6302 282.453 96.9516C281.961 97.2449 281.398 97.402 280.824 97.4066C279.512 97.4066 278.401 96.7165 277.493 95.3364C276.649 93.97 276.228 92.3881 276.281 90.7866C276.231 89.2005 276.682 87.6383 277.571 86.3187C278.415 85.1039 279.406 84.4988 280.59 84.4988C281.214 84.5079 281.825 84.6712 282.369 84.9739C282.913 85.2766 283.373 85.7091 283.705 86.2323C284.178 86.9042 284.538 87.648 284.77 88.4344C285.028 89.2582 285.161 90.1153 285.165 90.9777C285.165 91.8319 285.044 92.6818 284.807 93.5028Z" fill="#818A91"/>
<path d="M66.1279 75.563C65.1521 80.7407 63.586 84.8507 61.4294 87.893C59.448 90.6272 56.726 92.7489 53.5787 94.0124C49.9696 95.4998 46.0888 96.2295 42.1811 96.1554C33.7384 96.1311 26.969 93.2117 21.8728 87.397C19.1198 84.2698 17.0198 80.3903 15.573 75.7586C14.0818 70.6944 13.3657 65.437 13.4485 60.1619C13.4669 53.3706 14.5375 47.3133 16.6604 41.9901C18.0671 38.3638 20.0059 34.9633 22.4143 31.8986C24.4877 29.186 27.0576 26.8846 29.9897 25.1149C33.067 23.3222 36.6995 22.432 40.8872 22.4441C43.4512 22.4207 45.9962 22.884 48.3846 23.8091C50.7782 24.8131 52.9579 26.2582 54.8084 28.0677C57.42 30.4748 59.5456 33.353 61.0715 36.5485C61.8791 38.2683 62.9344 40.8966 64.2375 44.4333C64.4578 44.9853 64.7713 45.7937 65.1782 46.8583H66.4537L65.8572 22.2303H64.522C64.2621 22.8644 63.9442 23.4736 63.5722 24.0502C63.3126 24.4119 62.968 24.7053 62.5683 24.9051C62.1685 25.1049 61.7256 25.205 61.278 25.1967C60.4773 25.1683 59.688 24.9989 58.9471 24.6963L54.3862 23.2039C49.8192 21.579 45.0137 20.7105 40.1622 20.6333C35.3701 20.6343 30.6104 21.412 26.0712 22.9355C21.7066 24.3161 17.616 26.4358 13.9808 29.2006C9.6004 32.6463 6.17899 37.2006 3.71655 42.8636C1.21496 48.7419 -0.049742 55.0649 -5.56402e-05 61.445C-0.0245271 70.2261 2.0479 77.7894 6.21722 84.1348C10.3865 90.4803 16.1893 94.8784 23.6256 97.3292C28.3607 98.8495 33.3085 99.6173 38.2855 99.6041C43.7641 99.6041 48.5911 98.7548 52.7665 97.0563C56.6842 95.5333 60.0891 92.9455 62.5903 89.59C65.0833 86.1807 66.6893 81.5748 67.4081 75.7723L66.1279 75.563Z" fill="#A40404"/>
<path d="M142.24 95.091C141.416 95.5339 140.483 95.7403 139.547 95.687C137.14 95.687 135.624 94.3797 135 91.7651C134.694 90.5154 134.552 88.1647 134.573 84.7129L134.633 64.3298C134.633 61.7212 134.489 59.8664 134.202 58.7654C133.614 56.5966 132.117 54.8298 129.709 53.4649C127.746 52.4336 125.652 51.6685 123.483 51.19C121.134 50.6124 118.726 50.3071 116.307 50.28C114.204 50.2807 112.106 50.488 110.044 50.8988C108.195 51.2255 106.392 51.766 104.671 52.5094C103.983 52.8304 103.33 53.2191 102.721 53.6696C102.417 52.9615 101.945 52.3369 101.344 51.8497C100.087 50.785 98.2514 50.2482 95.8379 50.2391C92.0792 50.1784 88.3988 51.3067 85.3305 53.4603C83.469 54.8616 81.9364 56.6468 80.8384 58.6926C80.7964 55.8452 80.4892 53.0077 79.9208 50.2163L65.5958 52.1591V53.3147C66.9178 53.3465 68.2202 53.6388 69.4271 54.1746C70.3854 54.6905 71.1799 55.4609 71.7213 56.3995C72.4076 57.5249 72.8221 58.7924 72.9326 60.103C73.157 62.7372 73.2428 65.3812 73.1896 68.0242L73.1529 81.5644C73.1529 84.7796 73.0626 87.2365 72.8821 88.9351C72.8054 90.2435 72.5108 91.5302 72.0104 92.7433C71.5493 93.8807 70.7281 94.8387 69.6703 95.4731C68.7067 96.0009 67.113 96.4074 64.8892 96.6925V97.8208L89.4463 97.8891V96.7289C86.6688 96.2072 84.763 95.4489 83.7291 94.454C82.8761 93.683 82.2779 92.6743 82.0131 91.5603C81.6633 89.7622 81.5202 87.9306 81.5863 86.1006L81.5405 81.9193L81.568 71.6277C81.5863 65.8646 82.3021 61.3739 83.7154 58.1557C85.1286 54.9375 87.097 53.3284 89.6206 53.3284C90.5333 53.3314 91.435 53.5255 92.2668 53.8979C93.0986 54.2703 93.8418 54.8127 94.4476 55.4895L96.1637 57.364C96.5607 57.8461 97.0603 58.2351 97.6266 58.5034C98.193 58.7716 98.8122 58.9123 99.4398 58.9155C99.9436 58.9222 100.444 58.8374 100.917 58.6653C101.121 59.3193 101.487 59.9121 101.982 60.3897C102.398 60.7976 102.893 61.1182 103.437 61.3323C103.981 61.5465 104.563 61.6499 105.148 61.6363C106.006 61.6891 106.859 61.4668 107.58 61.0023C108.301 60.5378 108.853 59.8556 109.153 59.0566L110.553 55.8717C111.103 54.5688 112.035 53.4594 113.228 52.6868C114.434 51.9117 115.847 51.5124 117.284 51.5403C118.545 51.5441 119.789 51.8303 120.923 52.3775C122.032 52.8891 123.008 53.6455 123.777 54.5887C125.401 56.5754 126.207 59.7178 126.195 64.0158C126.255 65.6221 126.025 67.2262 125.516 68.7522C125.011 69.9588 124.159 70.9908 123.065 71.7187C121.881 72.562 120.578 73.2274 119.197 73.6933C117.668 74.2392 115.287 74.9126 112.053 75.7134C109.899 76.2039 107.795 76.8892 105.767 77.7608C104.332 78.4347 103.031 79.3594 101.927 80.4907C99.9554 82.5497 98.8893 85.3007 98.9626 88.1389C98.9626 91.4481 100.151 94.0779 102.528 96.0282C104.905 97.9786 108.139 98.9598 112.232 98.9719C115.157 99.0441 118.051 98.3705 120.638 97.0155C121.902 96.3209 123.778 94.8741 126.268 92.675C127.489 94.7725 128.668 96.2466 129.82 97.0929C131.56 98.385 133.746 99.0341 136.376 99.0402C141.158 99.0402 144.216 97.1202 145.553 93.2801L144.608 92.7251C143.964 93.6449 143.163 94.4456 142.24 95.091ZM126.181 80.1176C126.181 84.7826 125.598 88.3436 124.433 90.8005C123.67 92.603 122.408 94.1549 120.794 95.2775C119.306 96.3583 117.509 96.943 115.664 96.9473C114.692 96.9604 113.729 96.7543 112.848 96.3444C111.967 95.9346 111.192 95.3317 110.58 94.5814C109.238 92.9981 108.569 90.9946 108.575 88.5711C108.542 85.8655 109.471 83.2347 111.2 81.1413C112.022 80.1416 112.974 79.2542 114.031 78.5024C115.838 77.3241 117.708 76.2442 119.633 75.2675C121.984 74.0619 124.198 72.6098 126.236 70.9361L126.181 80.1176Z" fill="#A40404"/>
<path d="M207.506 91.9057C207.157 90.1076 207.013 88.276 207.079 86.446L207.033 82.2602L207.203 20.8379L191.199 22.7488V23.9591C192.51 23.9937 193.803 24.2763 195.007 24.7917C195.97 25.2935 196.766 26.0596 197.301 26.9983C197.991 28.1355 198.405 29.4156 198.513 30.7382C198.735 33.3771 198.819 36.0256 198.765 38.6731L198.646 81.8552C198.646 85.0795 198.556 87.5455 198.375 89.2532C198.298 90.5659 198.003 91.8572 197.503 93.075C197.042 94.2122 196.221 95.1702 195.163 95.8049C194.784 96.0047 194.386 96.1677 193.975 96.2917C191.295 96.1507 189.336 95.2817 188.12 93.6665C186.789 91.9012 186.13 88.9468 186.142 84.8035L186.321 21.0472L169.257 23.1492V24.4732C172.356 24.4732 174.572 25.3574 175.906 27.1257C177.239 28.8941 177.902 31.7756 177.892 35.7703L177.837 56.1398C175.179 54.0014 172.853 52.5257 170.858 51.7128C168.558 50.846 166.11 50.4288 163.65 50.4844C157.838 50.4662 152.823 52.2148 148.605 55.7303C145.887 58.0645 143.752 60.9905 142.364 64.2794C140.855 67.8245 140.09 71.6375 140.116 75.4855C140.068 79.1031 140.756 82.6932 142.14 86.041C143.416 89.1444 145.426 91.8985 147.999 94.0714C151.976 97.4261 156.78 99.1096 162.411 99.1217C165.055 99.1505 167.687 98.7682 170.211 97.9888C172.949 97.0622 175.552 95.7818 177.952 94.1806C177.938 96.1331 178.118 98.0823 178.489 99.9998L191.336 98.1799L214.948 98.2436V97.088C212.168 96.5662 210.262 95.8079 209.231 94.813C208.374 94.0382 207.773 93.0249 207.506 91.9057ZM177.112 85.536C176.765 87.841 175.969 90.057 174.768 92.0604C173.728 93.7157 172.276 95.0775 170.551 96.0142C168.879 96.9489 166.992 97.438 165.072 97.4337C161.05 97.4337 157.661 95.5516 154.905 91.7874C153.223 89.4119 151.957 86.7725 151.16 83.98C150.245 80.9682 149.782 77.8394 149.784 74.6938C149.789 71.4967 150.293 68.3196 151.28 65.2758C152.159 62.4331 153.544 59.769 155.368 57.4092C158.253 53.7451 161.669 51.9251 165.618 51.9494C167.42 51.9619 169.193 52.4002 170.79 53.2279C172.384 54.0086 173.759 55.1665 174.795 56.5993C176.036 58.4887 176.842 60.6263 177.154 62.8598C177.591 65.4107 177.802 69.2402 177.787 74.3481C177.772 79.2194 177.547 82.9487 177.112 85.536Z" fill="#A40404"/>
<path d="M251.403 92.0969C250.131 93.3178 248.606 94.2494 246.934 94.8268C245.116 95.4873 243.194 95.8186 241.258 95.805C238.593 95.7906 235.965 95.1883 233.565 94.0417C231.164 92.8951 229.051 91.233 227.378 89.1759C225.629 86.9012 224.331 84.3184 223.551 81.5641C222.625 78.5269 222.161 75.3693 222.175 72.1961C222.175 71.3862 222.253 70.085 222.409 68.2833L254.964 68.3743C254.964 63.7486 253.622 59.8889 250.94 56.795C249.199 54.8082 247.015 53.2504 244.562 52.2452C241.958 51.1735 239.163 50.632 236.344 50.6528C230.951 50.5836 225.702 52.3807 221.5 55.7349C215.52 60.4212 212.519 66.8956 212.498 75.158C212.498 81.2244 214.058 86.3338 217.178 90.4863C219.308 93.3674 222.153 95.6528 225.437 97.1199C228.695 98.5637 232.601 99.2901 237.156 99.2992C242.414 99.2992 246.631 98.2179 249.806 96.0552C252.981 93.8926 255.057 90.6501 256.033 86.3278L254.867 85.9365C253.885 88.7634 252.731 90.8169 251.403 92.0969ZM226.997 55.8942C229.377 53.1825 232.155 51.8312 235.33 51.8403C237.215 51.8464 239.058 52.3966 240.634 53.4236C242.305 54.4898 243.672 55.9641 244.603 57.705C245.704 59.6887 246.379 62.5187 246.627 66.1949L222.735 66.1267C223.191 62.0197 224.611 58.6089 226.997 55.8942Z" fill="#A40404"/>
<path d="M68.7203 6.25597C69.5783 4.8827 70.847 3.80911 72.3497 3.18486C73.818 2.59338 76.0449 2.22485 79.0304 2.07926C80.4283 2.00646 81.7375 1.97158 82.958 1.97461L82.88 31.3936C82.9192 32.8622 82.8023 34.3308 82.5313 35.7751C82.3587 36.5758 81.9847 37.3203 81.444 37.9392C80.9033 38.5581 80.2135 39.0313 79.4387 39.3148C78.5591 39.5978 77.6424 39.751 76.7178 39.7698V40.4341L95.31 40.4841V39.8244C94.3945 39.805 93.487 39.6516 92.6166 39.3694C91.9189 39.1095 91.2909 38.6939 90.7813 38.1546C90.1612 37.4957 89.7357 36.6804 89.5516 35.7978C89.2917 34.3554 89.184 32.89 89.2304 31.4255L89.313 1.99736C93.6169 1.99736 96.6758 2.2658 98.4898 2.80268C100.631 3.40932 102.252 4.39965 103.353 5.77369C104.455 7.14773 105.261 9.16633 105.772 11.8295L106.451 11.784L105.992 2.10201C106.481 2.3682 106.886 2.76348 107.162 3.24401C107.52 3.84175 107.736 4.51224 107.795 5.20497C107.911 6.58491 107.956 7.9699 107.928 9.35438L107.868 31.9669C107.868 33.6549 107.813 34.947 107.726 35.8388C107.685 36.5265 107.53 37.2029 107.267 37.8407C107.025 38.434 106.595 38.9336 106.042 39.2648C105.251 39.6204 104.403 39.8375 103.537 39.9063V40.4932L116.385 40.5296V39.9381C114.935 39.6697 113.939 39.2693 113.397 38.7506C112.944 38.3492 112.624 37.821 112.48 37.2355C112.294 36.2918 112.219 35.33 112.255 34.3692L112.232 32.2353V27.6264C112.25 20.2891 114.601 16.6265 119.284 16.6386C121.089 16.6386 122.481 17.2089 123.46 18.3493C123.988 18.9649 124.367 19.6915 124.57 20.4741C124.81 21.5522 124.915 22.6555 124.882 23.759L124.855 32.8905C124.875 34.1073 124.804 35.3238 124.644 36.5303C124.555 37.2301 124.304 37.8998 123.909 38.4867C123.608 38.9078 123.202 39.2447 122.73 39.4649C122.025 39.7182 121.289 39.8802 120.542 39.9472V40.5523L133.389 40.5887V39.9882C131.936 39.7152 130.939 39.3178 130.397 38.7961C129.946 38.3931 129.627 37.8655 129.48 37.281C129.297 36.337 129.221 35.3755 129.255 34.4147L129.232 32.2217L129.255 23.8091C129.255 21.8709 129.061 20.4149 128.672 19.4413C128.223 18.4097 127.457 17.5451 126.484 16.9707C124.994 16.0608 123.103 15.6058 120.812 15.6058C119.144 15.5723 117.49 15.9227 115.981 16.6295C115.295 16.9404 114.657 17.3463 114.086 17.8352C113.425 18.431 112.812 19.076 112.25 19.7643L112.347 0L103.964 1.0146V1.1329L66.5821 1.02825L66.0269 11.6748L66.6968 11.7339C67.0281 9.80069 67.7139 7.94403 68.7203 6.25597Z" fill="#818A91"/>
<path d="M138.684 40.0018C140.627 40.8018 142.716 41.1908 144.819 41.1438C147.572 41.1438 149.779 40.5766 151.44 39.4422C153.101 38.3078 154.187 36.6137 154.698 34.36L154.088 34.1553C153.745 35.3553 153.128 36.4608 152.284 37.3857C151.619 38.0268 150.82 38.516 149.944 38.8188C148.992 39.1659 147.985 39.3401 146.971 39.333C145.575 39.3225 144.198 39.0044 142.941 38.4016C141.684 37.7988 140.578 36.9266 139.703 35.8478C138.787 34.6517 138.106 33.2949 137.698 31.8486C137.212 30.2584 136.968 28.6054 136.973 26.9439C136.973 26.5207 137.014 25.8383 137.097 24.8919L154.143 24.942C154.226 23.1478 153.747 21.372 152.772 19.8584C151.797 18.3448 150.373 17.1676 148.696 16.4884C147.333 15.9251 145.869 15.6404 144.392 15.6513C141.568 15.6172 138.82 16.5582 136.62 18.3129C133.49 20.7698 131.919 24.1609 131.907 28.4863C131.907 31.662 132.724 34.3373 134.357 36.5121C135.47 38.0274 136.961 39.2299 138.684 40.0018ZM139.487 18.4221C140.009 17.7678 140.671 17.2376 141.426 16.8707C142.181 16.5038 143.01 16.3094 143.851 16.3019C144.839 16.3019 145.806 16.5899 146.631 17.13C147.507 17.6886 148.222 18.461 148.71 19.373C149.291 20.4104 149.649 21.8921 149.784 23.8182L137.271 23.7818C137.43 21.8102 138.205 19.9368 139.487 18.4221Z" fill="#818A91"/>
</g>
<defs>
<clipPath id="clip0_1491_27406">
<rect width="288" height="100" fill="white"/>
</clipPath>
</defs>
</svg>
