<?xml version="1.0" encoding="UTF-8"?> <svg xmlns="http://www.w3.org/2000/svg" id="Layer_2" viewBox="0 0 632.01 183.65"><defs><style>.cls-1{fill:none;stroke:#fff;stroke-miterlimit:10;stroke-width:3.01px;}.cls-2{fill:#fff;}</style></defs><g id="Layer_1-2"><g id="Layer_2-2"><g id="Vector_Recreation_2c_outlines_"><rect class="cls-1" x="1.5" y="1.5" width="629" height="180.64"></rect><path class="cls-2" d="M28.1,152.7c-.54-.04-1.01-.39-1.2-.9-.3-.4-.44-.9-.4-1.4V21.7c-.04-.5,.1-1,.4-1.4,.19-.51,.66-.86,1.2-.9h16l1.6,1.2v5.7l-1.6,1.2h-11.2v117.1h11.2l1.6,1.2v5.7l-1.6,1.2h-16Z"></path><path class="cls-2" d="M56.9,171.1l-1.6-1.2-1.6-1.1-1.6-1.2-1.6-1.1-1.6-2.3-.8-2.3-.8-2.3v-2.3l.8-2.3,.8-2.3,1.6-1.2,1.6-1.1h1.6l1.6,1.1,1.6,1.2,.8,2.3,.8,2.3v2.3l-.8,2.3,.8,1.1h1.6l1.6-1.1,1.6-1.2,1.6-1.1,1.6-2.3,.8-2.3,.8-2.3,.8-2.3,.8-2.3,.8-2.3,.8-2.3,.8-2.3,.8-2.3,.8-2.3,.8-2.3,.8-2.3,.8-2.3-.8-2.3-.8-2.3-.8-2.3-.8-2.3-.8-2.3-.8-2.3-.8-2.3-.8-2.3-.8-2.3-.8-2.3-.8-2.3-.8-2.3-.8-2.3-.8-2.3-.8-2.3-.8-2.3-.8-2.3-.8-2.3-.8-2.2-.8-2.3-.8-2.3-.8-2.3-.8-2.3-.4-1.2h-5.2l-1.6-1.1v-5.8l1.6-1.1h16l1.6,1.1v5.8l-1.6,1.1h-4.4l.4,1.2,.8,2.3,.8,2.3,.8,2.3,.8,2.3,.8,2.2,.8,2.3,.8,2.3,.8,2.3,.8,2.3,.8,2.3,.8,2.3,.8,2.3,.8,2.3,.8,2.3,.8,2.3,.8,2.3,.8,2.3,.8,2.3,.8,2.3,.8-2.3,.8-2.3,.8-2.3,.8-2.3,.8-2.3,.8-2.3,.8-2.3,.8-2.3,.8-2.3,.8-2.3,.8-2.3,.8-2.3,.8-2.3,.7-2.3,.8-2.2,.8-2.3,.8-2.3,.8-2.3,.8-2.3,.4-1.2h-4.4l-1.5-1.1v-5.8l1.5-1.1h16l1.6,1.1v5.8l-1.6,1.1h-5.2l-.4,1.2-.8,2.3-.8,2.3-.8,2.3-.8,2.3-.8,2.2-.8,2.3-.8,2.3-.8,2.3-.8,2.3-.8,2.3-.8,2.3-.8,2.3-.8,2.3-.7,2.3-.8,2.3-.8,2.3-.8,2.3-.8,2.3-.8,2.3-.8,2.3-.8,2.3-.8,2.3-.8,2.3-.8,2.3-.8,2.3-.8,2.3-.8,2.3-.8,2.3-.8,2.3-.8,2.3-.8,2.3-.8,2.3-.8,2.3-.8,2.3-.8,2.3-.8,2.3-.8,2.3-1.6,2.3-1.6,2.3-1.6,1.1-1.6,1.2-1.6,1.1-1.6,1.2h-4.8Z"></path><path class="cls-2" d="M131.2,135.4l-1.6-1.1-1.6-1.2-1.6-1.1-1.6-1.1-1.6-1.2-1.6-2.3-1.6-2.3-1.6-2.3-1.6-2.3-.8-2.3-.8-2.3-.8-2.3-.8-2.3-.8-2.3v-16.1l.8-2.3,.8-2.3,.8-2.2,.8-2.3,.8-2.3,1.6-2.3,1.6-2.3,1.6-2.3,1.6-2.3,1.6-1.2,1.6-1.1,1.6-1.2,1.6-1.1,1.6-1.2h11.2l1.6,1.2,1.6,1.1,1.6,1.2,1.6,1.1,1.6,1.2,1.6,2.3,1.6,2.3,1.6,2.3,1.6,2.3,.8,2.3,.8,2.3,.8,2.2,.8,2.3,.8,2.3v16.1l-.8,2.3-.8,2.3-.8,2.3-.8,2.3-.8,2.3-1.6,2.3-1.6,2.3-1.6,2.3-1.6,2.3-1.6,1.2-1.6,1.1-1.6,1.1-1.6,1.2-1.6,1.1h-11.2Zm8-8l1.6-1.1,1.6-1.2,1.6-1.1,1.6-1.2,1.6-2.3,1.6-2.3,1.6-2.3,1.6-2.3,.8-2.3,.8-2.3,.8-2.3v-11.5l-.8-2.3-.8-2.3-.8-2.3-1.6-2.2-1.6-2.3-1.6-2.3-1.6-2.3-1.6-1.2-1.6-1.1-1.6-1.2-1.6-1.1h-4.8l-1.6,1.1-1.6,1.2-1.6,1.1-1.6,1.2-1.6,2.3-1.6,2.3-1.6,2.3-1.6,2.2-.8,2.3-.8,2.3-.8,2.3v11.5l.8,2.3,.8,2.3,.8,2.3,1.6,2.3,1.6,2.3,1.6,2.3,1.6,2.3,1.6,1.2,1.6,1.1,1.6,1.2,1.6,1.1h4.8Z"></path><path class="cls-2" d="M183.2,135.4l-1.6-1.1-1.6-1.2-1.6-1.1-1.6-2.3-1.6-2.3-1.6-2.3-.8-2.3-.8-2.3v-44.8h-4.8l-1.6-1.1v-5.8l1.6-1.1h16l1.6,1.1v5.8l-1.6,1.1h-4.8v42.5l.8,2.3,.8,2.3,1.6,2.3,1.6,1.2,1.6,1.1h4.8l1.6-1.1,1.6-1.2,1.6-1.1,.8-1.2,.8-1.1,.8-1.2,.8-1.1,.8-1.2,.8-1.1,.8-1.2,.8-1.1,.8-1.2,.8-2.3,.8-2.3,.8-2.3v-31h-4.8l-1.6-1.1v-5.8l1.6-1.1h15.9l1.6,1.1v5.8l-1.6,1.1h-4.8v50.6h4.8l1.6,1.1v5.7l-1.6,1.2h-9.5c-.48,.06-.96-.17-1.2-.6-.32-.51-.46-1.1-.4-1.7v-8l-.8,1.1h-.2l-.6,1.2-.8,1.1h-.2l-.6,1.2-1.6,1.1-1.6,1.2-1.6,1.1-1.6,1.1-1.6,1.2-1.6,1.1h-8Z"></path><path class="cls-2" d="M224.7,134.3l-1.6-1.2v-5.7l1.6-1.1h8v-50.6h-8l-1.6-1.1v-5.8l1.6-1.1h12.8c.47,.03,.87,.35,1,.8,.4,.39,.62,.94,.6,1.5v8l.8-1.1,.8-1.2,.8-1.1,.8-1.2,1.6-1.1,1.6-1.2,1.6-1.1,1.6-1.2,1.6-1.1,1.6-1.2h11.2l1.6,1.2,1.6,1.1,1.6,1.2,.8,2.3,.8,2.3v2.3l-.8,2.3-.8,2.3-1.6,1.1-1.6,1.2h-1.6l-1.6-1.2-1.6-1.1-.8-2.3-.8-2.3v-2.3h-4.8l-1.6,1.1-1.6,1.2-1.6,1.1-.8,1.2h-.2l-.6,1.1-.8,1.2h-.2l-.6,1.1-.8,1.2h-.2l-.6,1.1-.8,1.2h-.2l-.6,1.1-.8,1.1-.8,2.3-.8,2.3-.8,2.3v31.1h8l1.6,1.1v5.7l-1.6,1.2h-22.4Z"></path><path class="cls-2" d="M277.5,152.7l-1.6-1.2v-5.7l1.6-1.2h11.2V27.5h-11.2l-1.6-1.2v-5.7l1.6-1.2h16c.4,0,.7,.3,1,.9,.4,.35,.62,.87,.6,1.4V150.4c.02,.53-.2,1.05-.6,1.4-.3,.6-.6,.9-1,.9h-16Z"></path><path class="cls-2" d="M310.6,144.7l-1.6-1.2v-6.9l1.6-1.1h8V57.4h-8l-1.6-1.2v-6.9l1.6-1.1h20.8l.8,2.3,.8,2.3,.8,2.3,.8,2.3,.8,2.3,.8,2.3,.8,2.2,.8,2.3,.8,2.3,.8,2.3,.8,2.3,.8,2.3,.8,2.3,.8,2.3,.8,2.3,.8,2.3,.8,2.3,.8,2.3,.8,2.3,.8,2.3,.8,2.3,.7,2.3,.8,2.3,.8,2.3,.8,2.3,.8,2.3,.8,2.3,.8,2.3,.8,2.3,.8,2.3,.8,2.3,.8,2.3,.8,2.3,.8,2.3,.8,2.3,.8,2.3V57.4h-8l-1.6-1.2v-6.9l1.6-1.1h24l1.6,1.1v6.9l-1.6,1.2h-8v85l-.8,2.3h-10.4l-.8-2.3-.8-2.3-.8-2.3-.8-2.3-.8-2.3-.8-2.3-.8-2.3-.8-2.3-.8-2.3-.8-2.3-.7-2.3-.8-2.3-.8-2.3-.8-2.3-.8-2.3-.8-2.3-.8-2.3-.8-2.3-.8-2.3-.8-2.3-.8-2.3-.8-2.3-.8-2.3-.8-2.3-.8-2.3-.8-2.3-.8-2.3-.8-2.3-.8-2.3-.8-2.3-.8-2.3-.8-2.3-.8-2.3-.8-2.3-.8-2.3-.8-2.2-.8-2.3-.8-2.3v78.1h8l1.6,1.1v6.9l-1.6,1.2h-24Z"></path><path class="cls-2" d="M385.7,144.7l-1.6-1.2v-6.9l1.6-1.1h8V57.4h-8l-1.6-1.2v-6.9l1.6-1.1h51.1c.48,0,.9,.33,1,.8,.4,.39,.62,.94,.6,1.5v32.1l-.8,2.3h-6.4l-.8-2.3v-25.2h-28.7v32.1h9.6v-9.2l.8-2.3h6.4l.8,2.3v27.6l-.8,2.3h-6.4l-.8-2.3v-9.2h-9.6v36.8h28.7v-25.3l.8-2.3h6.4l.8,2.3v32.2c.05,.63-.17,1.25-.6,1.7-.19,.37-.58,.61-1,.6h-51.1Z"></path><path class="cls-2" d="M474.4,142.4l-.8-2.3-.8-2.3-.8-2.3-.8-2.3-.8-2.3-.8-2.3-.8-2.3-.8-2.3-.8-2.3-.8-2.3-.8-2.3-.8-2.3-.8-2.3-.8-2.3-.8-2.3-.8-2.3-.8-2.3-.8-2.3-.8-2.3-.8-2.3-.8-2.3-.8-2.3-.8-2.3-.8-2.3-.8-2.3-.8-2.3-.8-2.3-.8-2.3-.8-2.3-.8-2.3-.8-2.3-.8-2.3-.8-2.3-.8-2.3-.8-2.2-.8-2.3-.8-2.3h-4.8l-1.6-1.2v-6.9l1.6-1.1h17.6l1.6,1.1v6.9l-1.6,1.2h-4.8l.8,2.3,.8,2.3,.8,2.2,.8,2.3,.8,2.3,.8,2.3,.8,2.3,.8,2.3,.8,2.3,.8,2.3,.8,2.3,.8,2.3,.8,2.3,.8,2.3,.8,2.3,.8,2.3,.8,2.3,.8,2.3,.8,2.3,.8,2.3,.8,2.3,.8,2.3,.8,2.3,.8,2.3,.8,2.3,.8,2.3,.8,2.3,.8,2.3,.8-2.3,.8-2.3,.8-2.3,.8-2.3,.8-2.3,.8-2.3,.8-2.3,.8-2.3,.8-2.3,.8-2.3,.8-2.3,.8-2.3,.8-2.3,.8-2.3,.8-2.3,.8-2.3,.8-2.3-.8-2.3-.8-2.3-.8-2.3-.8-2.3-.8-2.3-.8-2.3-.8-2.3-.8-2.3-.8-2.2-.8-2.3-.8-2.3h-4.8l-1.6-1.2v-6.9l1.6-1.1h17.6l1.6,1.1v6.9l-1.6,1.2h-4.8l.8,2.3,.8,2.3,.8,2.2,.8,2.3,.8,2.3,.8,2.3,.8,2.3,.8,2.3,.7,2.3,.8,2.3,.8,2.3,.8,2.3,.8,2.3,.8,2.3,.8,2.3,.8,2.3,.8,2.3,.8,2.3,.8,2.3,.8,2.3,.8,2.3,.8,2.3,.8,2.3,.8,2.3,.8,2.3,.8,2.3,.8,2.3,.8,2.3,.8-2.3,.8-2.3,.8-2.3,.8-2.3,.8-2.3,.8-2.3,.8-2.3,.8-2.3,.8-2.3,.8-2.3,.8-2.3,.8-2.3,.8-2.3,.8-2.3,.8-2.3,.8-2.3,.8-2.3,.8-2.3,.8-2.3,.8-2.3,.8-2.3,.8-2.3,.8-2.3,.8-2.3,.8-2.3,.8-2.2,.8-2.3,.8-2.3h-4.8l-1.6-1.2v-6.9l1.6-1.1h17.6l1.6,1.1v6.9l-1.6,1.2h-4.8l-.8,2.3-.8,2.3-.8,2.2-.8,2.3-.8,2.3-.8,2.3-.8,2.3-.8,2.3-.8,2.3-.8,2.3-.8,2.3-.8,2.3-.8,2.3-.8,2.3-.8,2.3-.8,2.3-.8,2.3-.8,2.3-.8,2.3-.8,2.3-.8,2.3-.8,2.3-.8,2.3-.8,2.3-.8,2.3-.8,2.3-.8,2.3-.8,2.3-.8,2.3-.8,2.3-.8,2.3-.8,2.3-.8,2.3-.8,2.3-.8,2.3-.8,2.3-.8,2.3-.8,2.3-.8-2.3-.8-2.3-.8-2.3-.8-2.3-.8-2.3-.8-2.3-.8-2.3-.8-2.3-.8-2.3-.8-2.3-.8-2.3-.8-2.3-.8-2.3-.8-2.3-.8-2.3-.8-2.3-.8-2.3-.8-2.3-.8-2.3-.7-2.3-.8-2.3-.8-2.3-.8,2.3-.8,2.3-.8,2.3-.8,2.3-.8,2.3-.8,2.3-.8,2.3-.8,2.3-.8,2.3-.8,2.3-.8,2.3-.8,2.3-.8,2.3-.8,2.3-.8,2.3-.8,2.3-.8,2.3-.8,2.3-.8,2.3-.8,2.3-.8,2.3-.8,2.3-.8-2.3Z"></path><path class="cls-2" d="M571,145.8l-1.6-1.1-1.6-1.2-1.5-1.1-1.6-2.3v2.3l-.8,2.3h-5.6l-.8-2.3v-27.6l.8-2.3h5.6l.8,2.3v4.6l.8,2.3,.8,2.3,.8,2.3,.7,2.3,.8,2.3,.8,1.1v.3l.8,.9,.8,1.1,1.6,1.2,1.6,1.1h11.2l1.6-1.1,1.6-1.2,.8-1.1,.8-1.2,.8-1.1,.8-2.3,.8-2.3,.8-2.3v-9.2l-.8-2.3-.8-2.3-.8-2.3-.8-1.1-.8-1.2-.8-1.1-.8-1.2-.8-1.1-1.6-1.2-1.6-1.1-1.6-1.2h-14.4l-1.5-1.1-1.6-1.2-1.6-1.1-1.6-1.2-1.6-2.3-1.6-2.3-1.6-2.3-.8-2.3-.8-2.3-.8-2.3-.8-2.3v-11.5l.8-2.3,.8-2.2,.8-2.3,.8-2.3,1.6-2.3,1.6-2.3,1.6-2.3,1.6-1.2,1.6-1.1,1.6-1.2h17.5l1.6,1.2,1.6,1.1,1.6,1.2,1.6,2.3v-2.3l.8-2.3h5.6l.8,2.3v27.5l-.8,2.3h-5.6l-.8-2.3v-4.6l-.8-2.3-.8-2.3-.8-2.3-.8-2.3-.8-2.2-.8-1.2-.8-1.1-.8-1.2-1.6-1.1-1.6-1.2h-11.2l-1.6,1.2-1.5,1.1-.8,1.2h-.2l-.6,1.1-.8,1.2-.8,2.2-.8,2.3-.8,2.3v6.9l.8,2.3,.8,2.3,.8,2.3,.8,1.2v.3l.8,.8,.8,1.2,1.5,1.1,1.6,1.2,1.6,1.1h14.4l1.6,1.2,1.6,1.1,1.6,1.2,1.6,1.1,1.6,2.3,1.6,2.3,1.6,2.3,1.6,2.3,.8,2.3,.8,2.3,.8,2.3,.8,2.3v13.8l-.8,2.3-.8,2.3-.8,2.3-.8,2.3-1.6,2.3-1.6,2.3-1.6,2.3-1.6,1.1-1.6,1.2-1.6,1.1h-17.6Z"></path><path class="cls-2" d="M602.7,47.8v-8h-2.9v-1.1h7.1v1.1h-3v8h-1.2Z"></path><path class="cls-2" d="M608.1,47.8v-9.1h1.8l2.2,6.4,.4,1.4,.5-1.5,2.2-6.3h1.6v9.1h-1.2v-7.6l-2.6,7.6h-1.1l-2.6-7.8v7.8h-1.2Z"></path></g></g></g></svg> 