<svg width="20" height="20" viewBox="0 0 20 20" fill="none" xmlns="http://www.w3.org/2000/svg">
<path fill-rule="evenodd" clip-rule="evenodd" d="M10 20C15.5228 20 20 15.5228 20 10C20 4.47715 15.5228 0 10 0C4.47715 0 0 4.47715 0 10C0 15.5228 4.47715 20 10 20ZM7.38917 11.3563C6.65838 9.86093 6.64838 8.41509 6.64838 8.41509H15.8399C15.9484 7.61473 16.0019 6.80778 15.9999 6H4C4 8.86833 4.60679 11.0017 5.18719 12.1766C6.09198 14.0101 7.46317 15.635 10.0119 16.6667H10.0343C11.561 16.096 12.8943 15.0988 13.8775 13.7923C14.5859 12.85 15.3295 11.3704 15.6799 9.7434H8.57356C8.68676 10.7553 9.17995 11.6308 9.80675 12.1585H12.2291C11.7639 12.9422 10.9115 13.6695 10.0291 14.0886C9.17516 13.7203 8.13996 12.7957 7.38917 11.3563Z" fill="white"/>
</svg>
