<svg width="20" height="20" viewBox="0 0 20 20" fill="none" xmlns="http://www.w3.org/2000/svg">
<path d="M7.80242 11.996C7.24597 11.996 6.79839 11.5484 6.79839 11.004C6.79839 10.4476 7.24597 10 7.80242 10C8.35081 10 8.79436 10.4476 8.79436 11.004C8.79436 11.5524 8.34677 11.996 7.80242 11.996ZM20 10C20 15.5242 15.5242 20 10 20C4.47581 20 0 15.5242 0 10C0 4.47581 4.47581 0 10 0C15.5242 0 20 4.47581 20 10ZM14.6653 8.33871C14.2863 8.33871 13.9516 8.49597 13.7056 8.74194C12.8024 8.11694 11.5847 7.71371 10.2339 7.66935L10.9355 4.5121L13.1694 5.01613C13.1694 5.56452 13.6169 6.00806 14.1613 6.00806C14.7177 6.00806 15.1653 5.55242 15.1653 5.00403C15.1653 4.45565 14.7177 4 14.1613 4C13.7702 4 13.4355 4.23387 13.2702 4.55645L10.8024 4.00806C10.6815 3.97581 10.5565 4.06452 10.5242 4.18548L9.75403 7.66935C8.41532 7.72581 7.20968 8.125 6.30645 8.75C6.06048 8.49194 5.71371 8.33871 5.33468 8.33871C3.92742 8.33871 3.46774 10.2298 4.75403 10.871C4.70968 11.0726 4.68548 11.2823 4.68548 11.496C4.68548 13.6169 7.07258 15.3347 10.0081 15.3347C12.9556 15.3347 15.3427 13.6169 15.3427 11.496C15.3427 11.2823 15.3185 11.0605 15.2661 10.8589C16.5282 10.2137 16.0645 8.33871 14.6653 8.33871V8.33871ZM11.8871 13.0242C11.1532 13.7581 8.81855 13.746 8.1129 13.0242C8.02419 12.9355 7.86694 12.9355 7.77823 13.0242C7.67742 13.125 7.67742 13.2823 7.77823 13.371C8.69758 14.2903 11.2984 14.2903 12.2218 13.371C12.3226 13.2823 12.3226 13.125 12.2218 13.0242C12.1331 12.9355 11.9758 12.9355 11.8871 13.0242ZM12.1976 10C11.6492 10 11.2056 10.4476 11.2056 11.004C11.2056 11.5524 11.6532 11.996 12.1976 11.996C12.754 11.996 13.2016 11.5484 13.2016 11.004C13.2016 10.4476 12.7581 10 12.1976 10V10Z" fill="white"/>
</svg>
