<svg width="20" height="20" viewBox="0 0 20 20" fill="none" xmlns="http://www.w3.org/2000/svg">
<path fill-rule="evenodd" clip-rule="evenodd" d="M10 20C15.5228 20 20 15.5228 20 10C20 4.47715 15.5228 0 10 0C4.47715 0 0 4.47715 0 10C0 15.5228 4.47715 20 10 20ZM4.90452 10.7575L9.99983 16L15.0955 10.7575C16.3015 9.51667 16.3015 7.50484 15.0955 6.26398C13.8895 5.02312 11.9341 5.02312 10.7281 6.26398L9.99983 7.0129L9.27193 6.26398C8.06591 5.02312 6.11055 5.02312 4.90452 6.26398C3.69849 7.50484 3.69849 9.51667 4.90452 10.7575Z" fill="white"/>
</svg>
