<svg width="20" height="20" viewBox="0 0 20 20" fill="none" xmlns="http://www.w3.org/2000/svg">
<path fill-rule="evenodd" clip-rule="evenodd" d="M10 20C15.5228 20 20 15.5228 20 10C20 4.47715 15.5228 0 10 0C4.47715 0 0 4.47715 0 10C0 15.5228 4.47715 20 10 20ZM12.7912 14.3263L14.4776 6.43933C14.6273 5.74415 14.2256 5.47201 13.7666 5.64271L3.85248 9.43034C3.17641 9.69258 3.18639 10.0686 3.73773 10.2393L6.27239 11.026L12.16 7.34974C12.4369 7.16667 12.6889 7.2681 12.4818 7.45118L7.71935 11.7188L7.53473 14.3139C7.79918 14.3139 7.91394 14.2001 8.05115 14.0641L9.29104 12.8815L11.8606 14.7592C12.3321 15.0215 12.6639 14.8829 12.7912 14.3263Z" fill="white"/>
</svg>
