<?xml version="1.0" encoding="UTF-8" standalone="no"?>
<!-- Created with Inkscape (http://www.inkscape.org/) -->

<svg
   width="210mm"
   height="297mm"
   viewBox="0 0 210 297"
   version="1.1"
   id="svg292"
   inkscape:export-filename="C:\Users\niteris\Videos\blast.video\blast_video_src\logo\logo_blk_bottom.png"
   inkscape:export-xdpi="96"
   inkscape:export-ydpi="96"
   sodipodi:docname="image.svg"
   inkscape:version="1.1.1 (3bf5ae0d25, 2021-09-20)"
   xmlns:inkscape="http://www.inkscape.org/namespaces/inkscape"
   xmlns:sodipodi="http://sodipodi.sourceforge.net/DTD/sodipodi-0.dtd"
   xmlns="http://www.w3.org/2000/svg"
   xmlns:svg="http://www.w3.org/2000/svg">
  <sodipodi:namedview
     id="namedview294"
     pagecolor="#ffffff"
     bordercolor="#666666"
     borderopacity="1.0"
     inkscape:pageshadow="2"
     inkscape:pageopacity="0.0"
     inkscape:pagecheckerboard="0"
     inkscape:document-units="mm"
     showgrid="false"
     inkscape:zoom="0.092648709"
     inkscape:cx="1117.123"
     inkscape:cy="-841.88976"
     inkscape:window-width="1284"
     inkscape:window-height="1040"
     inkscape:window-x="339"
     inkscape:window-y="26"
     inkscape:window-maximized="0"
     inkscape:current-layer="layer1" />
  <defs
     id="defs289" />
  <g
     inkscape:label="Layer 1"
     inkscape:groupmode="layer"
     id="layer1">
    <path
       d="m 114.47358,7.4923261 c -4.22913,0.886265 -6.64494,3.4235919 -6.80888,7.1508879 -0.17808,4.057703 1.73759,5.722069 8.43828,7.331487 3.96367,0.952032 4.8258,1.420547 4.8258,2.6197 0,2.375033 -5.73453,2.560633 -10.23745,0.331225 -0.73564,-0.364501 -1.37309,-0.619989 -1.4172,-0.569225 -0.13732,0.160722 -2.07212,4.55701 -2.07212,4.71012 0,0.270491 2.91262,1.490434 4.62608,1.938159 8.94507,2.335905 16.75256,-1.742588 15.54341,-8.119558 -0.60083,-3.167287 -2.4283,-4.462968 -8.37004,-5.934278 -4.59029,-1.135903 -5.47739,-1.712614 -4.71096,-3.063242 1.09182,-1.923974 5.02802,-2.093754 8.89598,-0.382807 0.68238,0.301314 1.2724,0.515976 1.31151,0.476849 0.13399,-0.133987 2.0172,-4.7142709 1.95812,-4.7642179 -1.74009,-1.4871 -8.48572,-2.458255 -11.98253,-1.7251 M 7.4696851,9.9580671 v 2.3450899 l 6.2737879,0.06731 c 7.823301,0.08555 8.80527,0.435206 8.183632,2.917617 -0.391122,1.559503 -0.793895,1.646029 -8.076282,1.720099 l -6.3811379,0.06574 v 4.480455 l 6.4876579,8.18e-4 c 8.321774,0.0017 9.168932,0.229602 9.168932,2.465741 0,2.200283 -1.019419,2.46659 -9.44688,2.46659 H 7.4696851 v 4.718455 l 7.2391149,-0.0063 c 9.422746,-0.0094 11.473231,-0.371169 13.533701,-2.385851 2.840224,-2.776994 1.901527,-7.792517 -1.787517,-9.551743 l -0.728154,-0.347014 0.92871,-0.709849 c 2.612205,-1.994742 2.757836,-6.609152 0.267974,-8.5048499 -2.38003,-1.811657 -3.944521,-2.068812 -12.644105,-2.078782 l -6.8097109,-0.0063 v 2.34509 M 42.858884,19.412263 v 11.796131 h 17.80194 V 25.846678 H 49.50798 V 7.6153051 H 42.858884 V 19.412275 M 75.56679,18.808956 c -2.7129,6.158093 -5.048821,11.467381 -5.191124,11.798606 l -0.257155,0.600835 h 6.800556 l 3.396115,-8.496547 3.396118,-8.496514 0.37032,0.828833 c 0.203057,0.456028 1.746739,4.279065 3.429401,8.496546 l 3.059917,7.667682 h 6.963671 l -0.74646,-1.662699 C 96.377049,28.631975 94.033644,23.347629 91.57955,17.803675 L 87.117416,7.7226831 83.808676,7.6670131 80.499939,7.6113431 75.56679,18.809146 m 61.87739,-8.512367 v 2.681284 h 7.29239 v 18.230524 h 6.64825 V 12.978062 h 7.07769 V 7.6154941 h -21.01833 v 2.6812839"
       fill-rule="evenodd"
       id="path296"
       style="stroke-width:0.832177"
       inkscape:export-filename="C:\Users\niteris\Videos\blast.video\blast_video_src\logo\logo_wht.png"
       inkscape:export-xdpi="96"
       inkscape:export-ydpi="96" />
    <path
       d="m 142.46482,38.023837 c -9.89059,1.577402 -13.89032,13.305676 -6.89508,20.218814 6.86634,6.785859 19.54139,3.772295 21.8381,-5.192861 2.27453,-8.878936 -5.35791,-16.554084 -14.94302,-15.025953 M 7.7165354,38.49681 c 0.821137,2.111961 6.3941806,14.976686 6.4853286,14.973401 0.165054,-0.0075 3.407708,-7.509281 3.400318,-7.866475 -0.0033,-0.151927 -0.65855,-1.847553 -1.456694,-3.76819 l -1.450124,-3.492289 -3.542376,-0.05831 c -2.8017146,-0.046 -3.5193876,-0.0016 -3.4364526,0.211847 m 19.3245966,0.747233 c -0.224165,0.551802 -2.399358,5.670762 -4.834844,11.374363 a 7677.4629,7677.4629 0 0 0 -4.538414,10.64027 c -0.08704,0.213489 0.565762,0.25784 3.119493,0.211039 l 3.229523,-0.05831 4.943235,-11.531201 c 2.718777,-6.342448 4.943231,-11.556656 4.943231,-11.587039 0,-0.03041 -1.452585,-0.05503 -3.227059,-0.05503 l -3.227881,8.2e-4 -0.407284,1.005069 m 17.444194,10.633695 v 11.639592 h 6.560049 V 38.237292 h -6.560049 v 11.640411 m 20.52838,-9.00621 v 2.634204 l 6.507497,0.06405 c 7.178365,0.07143 7.383646,0.108394 9.0136,1.621741 2.533202,2.352553 2.378009,7.331914 -0.299706,9.623702 -1.358978,1.163549 -2.36651,1.411533 -5.735627,1.411533 h -2.925717 v -6.137988 h -6.560047 v 11.42856 l 5.977866,-8.22e-4 c 8.600568,-0.0016 11.134593,-0.546051 14.144871,-3.039018 5.11485,-4.236239 5.017151,-13.229312 -0.189679,-17.375223 -2.913383,-2.320527 -5.55908,-2.86494 -13.929732,-2.86494 h -6.003319 v 2.634201 m 36.823807,-0.09443 v 2.539774 h 18.20046 v -5.079549 h -18.20046 v 2.53977 m 45.7438,2.996323 c 2.60629,1.121672 4.1919,4.457942 3.56373,7.499427 -1.61929,7.847588 -12.48372,6.628203 -12.48372,-1.400857 0,-4.99168 4.43906,-8.025774 8.91999,-6.09857 m -45.7438,5.998392 v 2.433845 h 18.20046 v -4.867687 h -18.20047 v 2.433844 m 0,9.205746 v 2.539772 h 18.20047 v -5.079541 h -18.20047 v 2.539769"
       fill-rule="evenodd"
       id="path305"
       style="stroke-width:0.821135"
       inkscape:export-filename="C:\Users\niteris\Videos\blast.video\blast_video_src\logo\logo_wht_bottom.png"
       inkscape:export-xdpi="96"
       inkscape:export-ydpi="96" />
  </g>
</svg>
